<svg width="193" height="41" viewBox="0 0 193 41" fill="none" xmlns="http://www.w3.org/2000/svg">
<g clip-path="url(#clip0)">
<path d="M12.0715 39.0107C10.1783 39.0107 8.42519 38.5337 6.81051 37.5799C5.19406 36.626 3.93248 35.3371 3.02222 33.713C2.25392 32.2148 1.69144 30.6901 1.33479 29.137C0.978144 27.5856 0.719085 26.0325 0.557617 24.4811C0.557617 21.8057 0.843291 19.1569 1.41464 16.5347C1.64708 14.8042 2.18117 13.1288 3.02045 11.5047C3.39484 10.5775 3.83311 9.68568 4.33171 8.82933C4.63513 8.29389 4.9208 7.74959 5.18873 7.19642C5.5099 6.82232 5.83106 6.43936 6.15222 6.04576C6.86552 5.01212 7.78642 4.10967 8.9096 3.34375C9.80211 2.63101 10.7922 2.0548 11.8817 1.61865C12.9711 1.18249 14.2735 0.962646 15.7906 0.962646C17.1462 0.980376 18.2712 1.20377 19.1637 1.63106C20.0562 2.06012 20.9044 2.77285 21.7082 3.77104C22.0648 4.23555 22.315 4.75149 22.4587 5.32239C22.6007 5.89328 22.6734 6.47305 22.6734 7.06167C22.6202 8.54211 22.3558 9.84879 21.8838 10.9817C21.4101 12.1146 20.5672 13.1359 19.3536 14.0454C18.2818 14.6163 17.1658 14.9018 16.0071 14.9018C15.221 14.9018 14.5255 14.705 13.9187 14.3131C13.5798 14.1163 13.3296 13.8539 13.1681 13.5242C13.0066 13.1944 12.9268 12.8327 12.9268 12.4409C12.9268 11.8877 13.0652 11.3576 13.342 10.8487C13.6188 10.3399 13.9808 9.97999 14.4261 9.76546C14.836 9.62362 15.2122 9.55093 15.5511 9.55093C15.9965 9.55093 16.3904 9.63603 16.7293 9.80446C17.0682 9.97467 17.3485 10.1697 17.5721 10.3931C17.7957 10.6165 18.0228 10.8966 18.2552 11.2353C18.6296 10.9321 18.933 10.62 19.1655 10.2991C19.3979 9.97821 19.6073 9.55979 19.7954 9.04209C19.9835 8.52438 20.0757 7.89143 20.0757 7.14323L20.0491 6.5546C19.9231 5.34189 19.5275 4.45008 18.8567 3.87919C18.1878 3.30829 17.4958 3.02284 16.7807 3.02284H16.6743C15.835 3.02284 15.0312 3.30297 14.2647 3.865C13.4964 4.42704 12.7866 5.12736 12.1354 5.96598C11.4842 6.80459 10.8951 7.67335 10.3681 8.57402C9.84114 9.47469 9.39045 10.2903 9.01606 11.0225C7.65866 13.6447 6.77503 16.3556 6.36515 19.1569C6.06173 20.726 5.90913 22.3057 5.90913 23.8925C5.90913 26.0874 6.20368 28.2718 6.79277 30.4472C7.54333 32.4985 8.52456 34.0056 9.73823 34.9683C10.9519 35.931 12.1744 36.4132 13.4059 36.4132C14.3516 36.4132 15.1998 36.243 15.9503 35.9044C16.7009 35.5658 17.3379 35.1544 17.8649 34.674C18.3919 34.1917 18.7893 33.7378 19.0572 33.3088C19.6109 32.417 20.0261 31.5606 20.3029 30.7397C20.5797 29.9188 20.7181 28.9207 20.7181 27.7434C20.7181 27.1902 20.6826 26.6548 20.6116 26.1389C20.5406 25.6212 20.4146 25.2027 20.2372 24.8818C20.1112 24.9882 19.9604 25.1141 19.7812 25.2559C19.4778 25.5591 19.1158 25.8587 18.697 26.153C18.2783 26.4474 17.7815 26.5945 17.2101 26.5945L16.9156 26.5679C14.8981 26.4261 13.8637 25.4811 13.8086 23.7312C13.8086 22.7684 14.2416 21.9617 15.1075 21.3093C15.9734 20.6586 17.0043 20.3324 18.2002 20.3324C19.0218 20.3324 19.8504 20.538 20.6897 20.9476C21.5289 21.3589 22.2298 21.9777 22.7923 22.8074C23.3548 23.6372 23.6529 24.6673 23.6901 25.8977L23.7434 27.9579C23.7434 29.0643 23.5996 30.1387 23.3157 31.1812C23.0301 32.2255 22.5474 33.2467 21.8696 34.2449C21.7082 34.424 21.5573 34.6101 21.4136 34.8069C20.7535 35.7165 19.8078 36.5994 18.5746 37.4558C17.6289 38.0621 16.6601 38.4734 15.67 38.6862C14.6816 38.9043 13.4804 39.0107 12.0715 39.0107Z" fill="#222A3F"/>
<path d="M52.2911 39.0107L47.6583 38.9841C47.1579 38.9841 46.4978 38.993 45.6763 39.0107L42.9987 38.9841C42.1772 38.9309 41.7673 38.61 41.7673 38.0214C41.7673 37.8973 41.7815 37.7448 41.8081 37.5657C41.8348 37.3884 41.9022 37.2271 42.0086 37.0835C42.1151 36.9416 42.2677 36.8689 42.4647 36.8689H44.6063C44.6241 36.8689 44.6329 36.8512 44.6329 36.8157L44.6063 36.548C44.6063 36.4948 44.6152 36.3601 44.6329 36.1473C44.6507 35.9328 44.6684 35.6757 44.6862 35.3708C44.7217 34.9062 44.7536 34.4524 44.7802 34.0056C44.8068 33.5606 44.821 33.2467 44.821 33.0695V30.9295C44.8388 30.9295 44.8476 30.8142 44.8476 30.582C44.8476 30.3497 44.8476 30.0554 44.8476 29.699L44.821 23.3305L42.5711 23.3039C42.2677 23.3039 42.0441 23.3092 41.9022 23.3181C41.7585 23.327 41.652 23.3323 41.581 23.3323C41.4923 23.35 41.4018 23.3589 41.3131 23.3589L40.2414 23.3323H34.4037L33.2521 23.3057C33.1456 23.3057 33.0818 23.3146 33.064 23.3323V30.9312C33.0818 30.9312 33.0906 30.972 33.0906 31.0518C33.0906 31.1316 33.0906 31.2344 33.0906 31.3603L33.064 33.073C33.064 33.2521 33.0782 33.5641 33.1048 34.0091C33.1314 34.4559 33.1634 34.9098 33.1989 35.3743C33.2166 35.6775 33.2344 35.9363 33.2521 36.1509C33.2698 36.3654 33.2787 36.4984 33.2787 36.5516L33.2521 36.8193C33.2521 36.8548 33.261 36.8725 33.2787 36.8725H35.4204C35.6351 36.8725 35.7912 36.9434 35.8888 37.087C35.9864 37.2306 36.0503 37.3902 36.0769 37.5693C36.1035 37.7483 36.1177 37.899 36.1177 38.0249C36.1177 38.6135 35.7167 38.9344 34.9129 38.9876L32.2088 39.0142C31.405 38.9965 30.7449 38.9876 30.2268 38.9876L25.7554 39.0142C25.5052 38.8529 25.3544 38.6845 25.2994 38.5054C25.2461 38.3281 25.2195 38.0781 25.2195 37.7554C25.2195 37.6845 25.2195 37.6136 25.2195 37.5409C25.2195 37.2377 25.2727 37.0498 25.381 36.9789C25.4519 36.9079 25.6933 36.8725 26.1031 36.8725H28.0035C28.0212 35.6243 28.0301 34.58 28.0301 33.7414C28.0301 31.9578 28.0035 30.0128 27.9503 27.9083C27.9148 26.6779 27.897 25.8215 27.897 25.3393C27.9148 25.162 27.9237 25.0007 27.9237 24.857C27.9237 24.7152 27.9237 24.6159 27.9237 24.5627C27.9591 21.8341 27.9946 19.8537 28.0301 18.6233C28.0479 17.3751 28.0603 16.2812 28.0709 15.345C28.0798 14.4089 28.0851 12.932 28.0851 10.9162L28.1384 8.61485C28.1384 8.24075 28.1295 7.82942 28.1117 7.3844C28.094 6.99258 28.0851 6.64507 28.0851 6.34012L28.1117 5.29584L28.0319 3.63634C28.0319 3.22678 28.0408 3.01225 28.0585 2.99452H26.5592C26.2203 2.99452 25.8902 2.93247 25.5691 2.80659C25.2479 2.68248 25.0864 2.35093 25.0864 1.81727C25.0864 1.67543 25.145 1.51941 25.2603 1.34921C25.3756 1.179 25.5052 1.09567 25.6489 1.09567C25.7554 1.09567 25.837 1.09212 25.8902 1.08149C25.9434 1.07262 25.9878 1.0673 26.0233 1.0673C26.041 1.0673 26.073 1.0673 26.1173 1.0673C26.1617 1.0673 26.2238 1.0673 26.3054 1.0673C26.3853 1.0673 26.5112 1.0673 26.6798 1.0673C26.8502 1.0673 27.0861 1.0673 27.3896 1.0673C27.9787 1.0673 28.692 1.07262 29.5312 1.08149C30.3705 1.09035 31.1548 1.10454 31.8876 1.12227C32.6009 1.12227 33.2805 1.10453 33.9228 1.06908C34.3859 1.05135 34.771 1.04248 35.0744 1.04248C35.3955 1.04248 35.6102 1.06908 35.7167 1.12227C35.7345 1.13999 35.7611 1.15772 35.7966 1.17545C35.8675 1.21091 35.9385 1.26942 36.0113 1.34921C36.0822 1.42899 36.1177 1.59388 36.1177 1.84386C36.1177 2.27115 35.9882 2.56546 35.7291 2.7268C35.4701 2.88814 35.0637 2.96793 34.5101 2.96793H33.1705L33.0906 5.80468C33.0906 6.21601 33.0995 6.6699 33.1172 7.16987C33.135 7.65212 33.1439 8.09714 33.1439 8.50669V8.90739C33.1439 9.33645 33.1439 9.75487 33.1439 10.1644C33.1616 11.3417 33.1084 12.7955 32.9824 14.5259V14.6323C32.9824 14.7937 32.9913 15.033 33.009 15.3539C33.0445 15.978 33.0622 16.7102 33.0622 17.5489V20.9193H36.2756C36.3998 20.9015 36.7671 20.8891 37.374 20.8785C37.9808 20.8696 38.6764 20.8643 39.4624 20.8643C40.6406 20.8643 41.5509 20.8696 42.1932 20.8785C42.8355 20.8874 43.3447 20.8927 43.7191 20.8927C44.0935 20.9104 44.4591 20.9193 44.8175 20.9193C44.8352 18.6002 44.853 17.0045 44.8707 16.1305C44.8885 15.5773 44.8973 15.0791 44.8973 14.6323V14.5259C44.7713 12.7955 44.7181 11.3417 44.7359 10.1644C44.7359 9.75487 44.7359 9.33467 44.7359 8.90739V8.50669C44.7359 8.02445 44.7447 7.49965 44.7625 6.92875C44.7802 6.39331 44.7891 5.90397 44.7891 5.45718C44.7713 4.58311 44.7536 3.8881 44.7359 3.37039C44.7181 3.15586 44.7092 3.02289 44.7092 2.9697H43.3962C42.8426 2.9697 42.4327 2.88992 42.1648 2.72858C41.8969 2.56724 41.7638 2.27292 41.7638 1.84564C41.7638 1.59565 41.7993 1.43076 41.8702 1.35098C41.9412 1.27119 42.0122 1.21269 42.0849 1.17723C42.1204 1.1595 42.147 1.14177 42.1648 1.12404C42.2712 1.07085 42.5126 1.04425 42.887 1.04425C43.1904 1.04425 43.5736 1.05312 44.0385 1.07085C44.6454 1.10631 45.3054 1.12404 46.0205 1.12404C46.7515 1.10631 47.5376 1.0939 48.3769 1.08326C49.2162 1.07439 49.9294 1.06908 50.5185 1.06908C50.8042 1.06908 51.0012 1.06908 51.1076 1.06908C51.2141 1.06908 51.2957 1.06908 51.349 1.06908C51.4022 1.06908 51.4607 1.06908 51.5228 1.06908C51.5849 1.06908 51.6701 1.06908 51.7766 1.06908C51.883 1.08681 52.0356 1.09567 52.2326 1.09567C52.3941 1.09567 52.5271 1.18077 52.6336 1.34921C52.7401 1.51941 52.7951 1.67543 52.7951 1.81727C52.7951 2.35271 52.6389 2.68248 52.3266 2.80659C52.0143 2.93247 51.679 2.99452 51.3223 2.99452H49.823L49.8496 3.63634C49.8496 3.79768 49.8407 3.99271 49.823 4.22497C49.8052 4.52814 49.7964 4.83132 49.7964 5.1345L49.823 6.28516C49.823 6.58834 49.8141 6.95357 49.7964 7.38263C49.7609 7.84715 49.7431 8.2833 49.7431 8.69286C49.7431 9.21056 49.752 9.67331 49.7698 10.0846C49.7875 10.496 49.8052 10.7708 49.823 10.9144C49.823 11.0403 49.823 11.253 49.823 11.5562C49.823 11.8594 49.8141 12.1803 49.7964 12.5189C49.7964 13.2689 49.8052 14.3699 49.823 15.8238C49.8407 17.2776 49.8674 18.7988 49.9028 20.3856C49.9383 22.6515 49.9649 24.5149 49.9827 25.9776C49.9827 27.0839 49.9649 28.208 49.9295 29.348C49.894 30.4189 49.8673 31.667 49.8496 33.0943C49.8496 34.057 49.8674 35.3158 49.9028 36.8672H51.938C52.3302 36.8672 52.5715 36.9026 52.6602 36.9735C52.7312 37.0445 52.7755 37.1349 52.7933 37.2413C52.811 37.3476 52.8199 37.509 52.8199 37.7235C52.8199 38.0621 52.7844 38.3263 52.7134 38.5125C52.6478 38.7022 52.5041 38.8688 52.2911 39.0107Z" fill="#222A3F"/>
<path d="M62.895 39.0107L59.0393 38.9841C58.539 38.9841 57.8966 38.993 57.1106 39.0107L54.5395 38.9841C53.7712 38.931 53.3879 38.6101 53.3879 38.0214C53.3879 37.8973 53.4021 37.7448 53.4288 37.5658C53.4554 37.3885 53.5139 37.2271 53.6026 37.0835C53.6914 36.9417 53.8351 36.869 54.0303 36.869H56.0921C56.1098 36.869 56.1187 36.8513 56.1187 36.8158L56.0921 36.5481C56.0921 36.4949 56.101 36.3601 56.1187 36.1474C56.1365 35.9329 56.1542 35.6758 56.1719 35.3708C56.2074 34.9063 56.2394 34.4524 56.266 34.0056C56.2926 33.5606 56.3068 33.2468 56.3068 33.0695L56.2802 31.5713C56.2802 31.3941 56.2802 31.2416 56.2802 31.1157C56.2802 30.9916 56.289 30.9278 56.3068 30.9278V24.9635L56.2802 20.8963C56.2979 18.7031 56.3245 17.1411 56.36 16.2139C56.3778 15.6252 56.3866 15.0987 56.3866 14.6359V14.5295C56.2624 12.7991 56.2074 11.3453 56.2252 10.168C56.2252 9.75846 56.2252 9.33827 56.2252 8.91098V8.51029C56.2252 8.10073 56.234 7.65394 56.2518 7.17347C56.2695 6.67349 56.2784 6.21961 56.2784 5.80828L56.1986 2.97152H54.9139C54.3958 2.97152 54.0072 2.89174 53.7499 2.7304C53.4909 2.56906 53.3613 2.27474 53.3613 1.84746C53.3613 1.59747 53.3968 1.43258 53.4678 1.3528C53.5388 1.27302 53.6097 1.21451 53.6825 1.17905C53.718 1.16132 53.7446 1.14359 53.7623 1.12586C53.8688 1.07267 54.0924 1.04608 54.4313 1.04608C54.7347 1.04608 55.1091 1.05494 55.5562 1.07267C56.1453 1.10813 56.7788 1.12586 57.4566 1.12586C58.1699 1.10813 58.9293 1.09572 59.7331 1.08508C60.5369 1.07622 61.2147 1.0709 61.7683 1.0709C62.0008 1.0709 62.1782 1.0709 62.3042 1.0709C62.4106 1.0709 62.4923 1.0709 62.5455 1.0709C62.5987 1.0709 62.6573 1.0709 62.7194 1.0709C62.7815 1.0709 62.8755 1.0709 62.9997 1.0709C63.1062 1.08863 63.2499 1.09749 63.4274 1.09749C63.5693 1.09749 63.6953 1.18259 63.8018 1.35103C63.9082 1.52123 63.9632 1.67725 63.9632 1.81909C63.9632 2.35453 63.8106 2.6843 63.5072 2.80841C63.2038 2.93429 62.8826 2.99635 62.5437 2.99635H61.1012L61.1278 3.63816C61.1278 3.78177 61.1278 3.90233 61.1278 3.99985C61.1278 4.09736 61.1278 4.20019 61.1278 4.30835C61.11 4.48742 61.0923 4.764 61.0745 5.1381L61.1012 6.34194C61.1012 6.64512 61.0923 6.99263 61.0745 7.38623C61.0568 7.83302 61.0479 8.24257 61.0479 8.61667L61.1012 10.918V15.3327C61.1189 15.6713 61.1313 16.2032 61.142 16.9248C61.1508 17.6482 61.1562 18.4017 61.1562 19.1854C61.1739 19.1676 61.1916 19.1499 61.2094 19.1322C61.3709 18.9708 61.6157 18.7315 61.9458 18.4106C62.2758 18.0897 62.6023 17.8219 62.9234 17.6074C64.6552 15.4674 66.1812 13.1838 67.5031 10.7584C67.6646 10.4907 67.8243 10.2141 67.9857 9.92867C68.3956 9.28685 68.7434 8.60071 69.0308 7.86848C69.2083 7.40396 69.4141 6.95007 69.6465 6.50329C69.7353 6.18238 69.9145 5.76396 70.1824 5.24625C70.3794 4.87215 70.5568 4.49628 70.7183 4.12218C70.8797 3.74809 70.9596 3.43604 70.9596 3.18605C70.9418 3.04422 70.8922 2.94493 70.8123 2.89174C70.7325 2.83855 70.5586 2.81196 70.2906 2.81196L69.3538 2.83855C68.8889 2.83855 68.4914 2.77118 68.1614 2.6382C67.8314 2.50523 67.6663 2.29425 67.6663 2.0088C67.6663 1.61697 67.7338 1.3528 67.8668 1.21983C67.9999 1.08685 68.1916 0.992886 68.4417 0.939697C69.1923 0.939697 69.7761 0.945015 70.1948 0.95388C70.6136 0.962745 70.9844 0.968064 71.3056 0.968064C71.5735 0.968064 71.8681 0.973383 72.1892 0.982248C72.5104 0.991113 72.9291 0.996432 73.4473 0.996432L75.7238 0.943243C76.0627 0.943243 76.343 0.992886 76.5666 1.0904C76.7902 1.18791 76.902 1.3989 76.902 1.7198C76.902 2.04071 76.7227 2.38821 76.3661 2.76409C75.8657 2.88997 75.3849 2.95202 74.92 2.95202C74.6521 2.95202 74.3486 2.93429 74.0097 2.89883C73.7063 3.64703 73.4473 4.27289 73.2326 4.77109C72.8209 6.03699 72.3312 7.28694 71.7598 8.51738C71.4032 9.32054 71.0731 10.1148 70.7697 10.8985C70.0742 12.3435 69.368 13.6909 68.6547 14.9391C67.9396 16.1873 66.914 17.8202 65.5761 19.836C65.8441 20.5683 66.1918 21.4689 66.6212 22.538C66.9956 23.483 67.3257 24.3305 67.6113 25.0805C68.1117 26.5609 68.7363 28.0148 69.4851 29.442C69.8417 30.1565 70.1806 30.8693 70.5018 31.582C70.6437 31.832 70.7786 32.082 70.9028 32.332C71.2062 32.9738 71.5363 33.5624 71.8929 34.0978C72.2495 34.6333 72.7056 35.1067 73.2592 35.5162C73.4011 35.5694 73.5448 35.596 73.6868 35.596C74.2227 35.596 74.6645 35.3159 75.0122 34.7538C75.36 34.1918 75.5605 33.6705 75.6155 33.1883C74.4728 33.1883 73.4739 32.8 72.6168 32.0252C71.7598 31.2487 71.3322 30.2381 71.3322 28.9881C71.3322 28.435 71.4529 27.9084 71.6942 27.4102C71.9355 26.9102 72.3134 26.5361 72.8315 26.2861C73.1527 26.2152 73.4827 26.1797 73.8216 26.1797C74.464 26.1797 75.085 26.3003 75.683 26.5414C76.2809 26.7825 76.8026 27.1354 77.2497 27.5981C77.2675 27.6513 77.2941 27.6956 77.3296 27.7311C77.7217 28.4261 78.0801 29.1406 78.4013 29.8711C78.7225 30.6033 78.8839 31.3692 78.8839 32.1724C78.8839 33.0642 78.758 33.9152 78.5095 34.7272C78.2594 35.5393 77.8229 36.3016 77.1983 37.0144C75.9491 38.3175 74.5474 38.9682 72.9948 38.9682C71.263 39.0037 69.8435 38.3796 68.7363 37.0959C67.6113 35.4364 66.6567 33.6812 65.8707 31.8249C65.0669 30.2203 64.3713 28.5077 63.7822 26.6868C63.4256 25.6354 63.0494 24.6178 62.6573 23.6373C62.604 23.4955 62.5508 23.3518 62.4958 23.2082C62.4426 23.0664 62.3787 22.9051 62.3077 22.726C62.1285 22.8519 61.9777 22.9582 61.8517 23.0469C61.7257 23.1355 61.6068 23.2206 61.4897 23.3004C61.3726 23.3802 61.2892 23.4476 61.236 23.5008C61.236 23.8217 61.236 24.0681 61.236 24.2366C61.236 24.4068 61.236 24.5362 61.236 24.6248C61.236 24.7135 61.236 24.8039 61.236 24.8926C61.2537 24.9635 61.2626 25.084 61.2626 25.2542C61.2626 25.4245 61.2626 25.6869 61.2626 26.0432C61.2626 26.9705 61.2449 28.1211 61.2094 29.4952C61.1739 31.0288 61.1562 32.4472 61.1562 33.7503C61.1562 34.5889 61.165 35.6332 61.1828 36.8814H62.549C62.9412 36.8814 63.1825 36.9169 63.2712 36.9878C63.3244 37.0587 63.3653 37.1491 63.3919 37.2555C63.4185 37.3619 63.4327 37.5232 63.4327 37.7377C63.4327 38.0764 63.3972 38.3406 63.3262 38.5267C63.2517 38.7022 63.108 38.8689 62.895 39.0107Z" fill="#222A3F"/>
<path d="M102.391 39.0107L100.329 38.9575C99.4541 38.9575 98.9803 38.5018 98.9093 37.5923C98.9093 37.0568 99.0832 36.7448 99.431 36.6561C99.7788 36.5675 100.453 36.5232 101.452 36.5232C101.22 36.2023 101.019 35.9257 100.849 35.6934C100.678 35.4612 100.519 35.2289 100.366 34.9984C100.214 34.7662 100.093 34.5711 100.004 34.4098C99.6297 33.8566 99.2624 33.3035 98.9058 32.7503C97.9423 31.323 97.0125 29.8781 96.1218 28.4154C95.5504 27.3994 94.9702 26.3906 94.3811 25.3924C93.7033 24.2684 93.0415 23.1177 92.3991 21.9405C91.6131 20.7277 90.9087 19.4707 90.2841 18.1676C89.8014 17.2226 89.294 16.2864 88.7581 15.3574C88.4547 14.8929 88.0714 14.2422 87.6065 13.4036C87.3386 12.9391 87.0938 12.5118 86.8702 12.12C86.6466 11.7281 86.4727 11.4604 86.3485 11.3168C86.2598 16.9354 86.2154 22.5273 86.2154 28.0927V36.7342H88.4103L88.838 36.7076C89.4448 36.7076 89.7393 36.993 89.7216 37.5639C89.7039 38.2057 89.4093 38.6702 88.838 38.9557L87.4185 38.9291L82.4644 38.9557C82.0368 38.9557 81.6109 38.8936 81.1922 38.7678C80.7716 38.6436 80.5623 38.3848 80.5623 37.9912C80.58 37.7589 80.7042 37.4469 80.9367 37.0551C81.0786 36.931 81.2667 36.8459 81.4991 36.8015C81.7316 36.7572 81.9995 36.7342 82.3029 36.7342H83.2664C83.2132 35.486 83.1866 34.2183 83.1866 32.9347C83.1866 31.0801 83.2132 29.2061 83.2664 27.3161C83.3374 25.4439 83.3729 23.5876 83.3729 21.7508C83.3551 20.7171 83.3374 19.9317 83.3196 19.3962C83.3196 19.0399 83.3143 18.6693 83.3055 18.2864C83.2966 17.9034 83.2913 17.4087 83.2913 16.8006C83.2913 15.3556 83.309 13.9107 83.3445 12.4657C83.3622 12.1271 83.3711 11.7796 83.3711 11.4232L83.3445 9.06867C83.3445 7.30279 83.3888 5.52805 83.4776 3.74444H81.3625C81.0236 3.74444 80.7468 3.63274 80.5321 3.40934C80.3174 3.18595 80.2109 2.83313 80.2109 2.35265C80.2109 2.15585 80.2375 1.93423 80.2908 1.68424C80.344 1.43425 80.4416 1.20199 80.5853 0.989236L85.7541 1.01583L89.9576 0.989236C90.332 0.989236 90.6177 1.10093 90.8146 1.32433C91.0116 1.54772 91.1092 1.81012 91.1092 2.1133C91.1092 2.50513 90.9566 2.87568 90.6532 3.22318C90.3497 3.57068 89.8937 3.74444 89.2869 3.74444H88.1619C88.3039 4.04762 88.4299 4.31001 88.5363 4.53341C88.6428 4.7568 88.751 4.9802 88.8575 5.20182C88.9639 5.42521 89.0633 5.60783 89.152 5.74967C90.2947 7.71235 91.4552 9.66439 92.6334 11.6093C93.3644 12.8043 94.0884 13.9993 94.8017 15.1943C95.4085 16.0506 95.9887 16.9336 96.5423 17.8431C96.9522 18.5204 97.3816 19.1906 97.827 19.8501C98.1659 20.3856 98.59 21.0008 99.0992 21.6958C99.6084 22.3908 100.116 23.0734 100.625 23.7418C101.134 24.4102 101.745 25.1903 102.46 26.0839C102.46 22.8199 102.451 20.1001 102.433 17.9229C102.416 15.8184 102.407 13.3203 102.407 10.4321C102.424 9.62893 102.433 8.69281 102.433 7.62193L102.407 3.12744C101.959 3.18063 101.594 3.20722 101.308 3.20722C101.023 3.20722 100.728 3.18063 100.425 3.12744L100.183 3.18063C99.8444 3.18063 99.5765 3.02461 99.3795 2.71257C99.1826 2.40052 99.085 2.06543 99.085 1.70906C99.085 1.53177 99.1116 1.3527 99.1649 1.17363C99.5392 0.996328 99.8427 0.879312 100.075 0.826123C100.308 0.772933 100.646 0.746338 101.092 0.746338C101.663 0.746338 102.226 0.772933 102.779 0.826123C103.225 0.861582 103.645 0.888176 104.037 0.905906C104.358 0.905906 104.733 0.888175 105.162 0.852716C105.645 0.817257 106.09 0.799528 106.502 0.799528C106.537 0.799528 106.573 0.799528 106.608 0.799528C107.054 0.799528 107.371 0.843852 107.559 0.932501C107.748 1.02115 107.984 1.25341 108.269 1.62751C108.393 1.91295 108.457 2.14521 108.457 2.32251C108.457 2.67888 108.283 2.88986 107.936 2.95192C107.588 3.01397 107.19 3.03702 106.743 3.01929C106.458 3.01929 106.19 3.02815 105.939 3.04588C105.689 3.06361 105.483 3.1168 105.324 3.20722C105.27 4.2781 105.244 5.3472 105.244 6.41808L105.297 11.2069L105.283 13.0845C105.283 15.0294 105.301 16.9105 105.336 18.7296C105.354 20.5132 105.363 22.3057 105.363 24.107V25.4722C105.363 27.7381 105.372 29.2008 105.389 29.8603C105.389 30.3603 105.389 30.8053 105.389 31.1989C105.389 31.5908 105.389 32.1617 105.389 32.9116C105.389 33.6616 105.389 34.8654 105.389 36.5232H107.29C107.558 36.5232 107.746 36.6437 107.852 36.8849C107.959 37.126 108.014 37.4061 108.014 37.727C108.014 38.1384 107.934 38.539 107.772 38.9309C106.898 38.9309 106.005 38.9486 105.095 38.9841C104.185 39.0018 103.283 39.0107 102.391 39.0107Z" fill="#222A3F"/>
<path d="M113.954 40.1082C113.562 40.1082 113.164 40.0231 112.761 39.8547C112.36 39.6845 112.043 39.4487 111.81 39.1455C111.436 38.5391 111.265 37.8441 111.301 37.0587C111.301 36.4523 111.533 35.8318 111.997 35.1988C112.46 34.5659 113.04 34.2485 113.737 34.2485C114.147 34.2485 114.518 34.3514 114.848 34.557C115.178 34.7627 115.496 35.0162 115.799 35.3194C116.191 35.7467 116.388 36.2201 116.388 36.7378C116.335 37.47 116.165 38.1296 115.879 38.7182C115.522 39.3777 114.969 39.8334 114.218 40.0834L113.954 40.1082Z" fill="#FFB506"/>
<path d="M123.804 39.0107H120.992C120.509 39.0107 120.037 38.9699 119.572 38.8902C119.107 38.8104 118.877 38.5817 118.877 38.2076C118.912 37.7803 119.104 37.5072 119.452 37.392C119.799 37.2767 120.206 37.2182 120.671 37.2182H121.26C121.563 37.2182 121.764 37.1207 121.863 36.9239C121.961 36.7271 122.01 36.4949 122.01 36.2289C122.01 35.9612 121.993 35.6935 121.957 35.4258C121.922 35.1758 121.904 34.9524 121.904 34.7574L121.957 33.4737C121.957 33.0819 121.948 32.6883 121.93 32.2965C121.913 31.9756 121.904 31.6901 121.904 31.4401V21.4069C121.904 20.9246 121.895 20.453 121.877 19.9885C121.859 19.5062 121.851 19.0258 121.851 18.5435L121.877 17.6872V16.0543C121.877 15.9479 121.81 15.877 121.677 15.8397C121.544 15.8043 121.386 15.7865 121.208 15.7865C120.869 15.7865 120.557 15.8043 120.271 15.8397C120.074 15.8575 119.897 15.8663 119.736 15.8663C119.288 15.8663 119.003 15.7458 118.879 15.5046C118.753 15.2635 118.69 14.8398 118.69 14.2334C118.69 14.0366 118.847 13.9036 119.159 13.8327C119.471 13.7618 119.815 13.7263 120.19 13.7263L120.779 13.7529C121.242 13.7529 121.577 13.5792 121.783 13.2317C121.989 12.8842 122.127 12.464 122.198 11.9746C122.269 11.4835 122.314 10.9977 122.331 10.5155C122.349 10.0705 122.385 9.71234 122.438 9.44462C122.509 9.08825 122.571 8.73188 122.626 8.37374C122.75 7.53512 122.921 6.70537 123.135 5.88449C123.35 5.0636 123.707 4.30654 124.207 3.60976C124.404 3.20021 124.761 2.73214 125.279 2.20557C125.797 1.679 126.563 1.32795 127.582 1.14888C127.956 1.09569 128.322 1.06909 128.68 1.06909C129.519 1.06909 130.295 1.2127 131.01 1.49815C131.885 1.85452 132.506 2.44315 132.871 3.26403C133.237 4.08492 133.42 4.80652 133.42 5.43061C133.42 6.12561 133.276 6.80466 132.992 7.46421C132.848 7.92873 132.586 8.26736 132.202 8.48012C131.819 8.69465 131.395 8.80103 130.93 8.80103C130.376 8.80103 129.849 8.65919 129.351 8.37374C128.994 8.2124 128.744 8.01737 128.6 7.78512C128.457 7.55286 128.386 7.3135 128.386 7.06351C128.386 6.81352 128.43 6.55467 128.519 6.28695C128.607 6.01923 128.707 5.75151 128.813 5.4838C128.902 5.26927 128.984 5.06537 129.055 4.86857C129.216 4.63631 129.296 4.45015 129.296 4.30654C129.296 4.18243 129.252 4.08315 129.163 4.01223C129.074 3.94131 128.966 3.90585 128.842 3.90585C128.556 3.90585 128.288 4.08492 128.038 4.44129C127.074 5.49443 126.421 6.58127 126.082 7.70533C126.029 7.90213 125.962 8.33474 125.882 9.00315C125.802 9.67156 125.726 10.3896 125.655 11.1573C125.584 11.925 125.548 12.5225 125.548 12.9498C125.548 13.3239 125.593 13.5615 125.681 13.659C125.77 13.7565 125.976 13.8061 126.297 13.8061C126.459 13.8061 126.618 13.7973 126.78 13.7795H128.921C129.243 13.7795 129.511 13.8912 129.725 14.1146C129.94 14.338 130.046 14.565 130.046 14.7972C130.046 15.0649 129.858 15.3415 129.484 15.627C128.27 15.7706 127.021 15.8415 125.735 15.8415V18.8112C125.752 19.008 125.761 19.3201 125.761 19.7474L125.735 21.593V37.2182H127.555C128.001 37.2182 128.327 37.3211 128.533 37.5267C128.739 37.7324 128.842 37.9505 128.842 38.1827C128.842 38.4682 128.716 38.7182 128.467 38.9327C126.927 38.9841 125.375 39.0107 123.804 39.0107Z" fill="#E14646"/>
<path d="M136.497 39.0107C135.587 39.0107 134.694 38.8546 133.819 38.5426C132.945 38.2306 132.221 37.727 131.651 37.0302C131.204 36.4771 130.929 35.8441 130.821 35.1314C130.767 34.9346 130.714 34.7484 130.659 34.5694V33.7928C130.659 32.706 130.762 31.5819 130.968 30.4224C131.174 29.2628 131.598 28.2647 132.24 27.4261C133.097 26.3747 134.137 25.6017 135.359 25.1123C136.582 24.6212 138.479 24.2347 141.05 23.9493C141.085 23.6993 141.103 23.4227 141.103 23.1195C141.103 22.655 141.085 22.1922 141.05 21.7277C141.032 21.4955 141.014 21.2987 140.997 21.1391L141.05 20.6568C141.05 20.3714 141.023 20.0771 140.97 19.7739C140.935 19.4707 140.917 19.1764 140.917 18.891L140.943 18.4353C140.943 17.9353 140.69 17.3697 140.18 16.7368C139.671 16.1038 139.052 15.751 138.319 15.6801C137.854 15.6801 137.462 15.7918 137.141 16.0152C136.82 16.2386 136.508 16.5099 136.204 16.8308C136.169 16.8662 136.133 16.8928 136.098 16.9105C135.615 17.3378 135.374 17.696 135.374 17.9814C135.374 18.196 135.48 18.3733 135.695 18.5169C135.91 18.6605 136.14 18.7846 136.39 18.891C136.552 18.9796 136.694 19.0612 136.818 19.1321C137.514 19.6675 137.863 20.3005 137.863 21.0309C137.863 21.6728 137.59 22.249 137.047 22.756C136.502 23.2649 135.918 23.5627 135.294 23.6532C134.366 23.5291 133.594 22.9972 132.978 22.061C132.363 21.1249 132.054 20.1746 132.054 19.2119C132.054 18.1782 132.304 17.1924 132.804 16.2545C133.305 15.3184 134.027 14.556 134.973 13.9674C135.473 13.682 135.963 13.4763 136.445 13.3522C136.928 13.2281 137.506 13.1377 138.186 13.0845C138.669 13.1199 139.093 13.1696 139.458 13.2316C139.824 13.2937 140.195 13.3841 140.569 13.4993C140.943 13.6164 141.273 13.7724 141.559 13.9674C142.54 14.627 143.291 15.4088 143.809 16.3095C144.327 17.2102 144.613 18.3396 144.666 19.6941C144.773 20.8359 144.828 21.9688 144.828 23.0929C144.828 24.5556 144.783 25.9119 144.694 27.1601C144.659 28.0696 144.641 28.8285 144.641 29.4348C144.641 29.8089 144.65 30.1139 144.668 30.3444C144.668 31.1475 144.641 32.0127 144.588 32.94V37.1402H146.57C146.856 37.1402 147.074 37.2465 147.227 37.4611C147.377 37.6756 147.454 37.9079 147.454 38.1561C147.454 38.3529 147.392 38.5302 147.266 38.6915C147.14 38.8529 146.944 38.9326 146.676 38.9326L143.009 38.9592C142.562 38.9592 142.196 38.8121 141.91 38.5178C141.625 38.2235 141.41 37.8848 141.268 37.5019C141.124 37.1189 141.053 36.8104 141.053 36.5781C140.606 37.3104 139.969 37.899 139.139 38.344C138.305 38.7873 137.425 39.0107 136.497 39.0107ZM136.096 36.2821C136.667 36.2821 137.23 36.1934 137.783 36.0143C137.801 35.9966 137.819 35.9877 137.837 35.9877C138.443 35.8459 139.001 35.5232 139.51 35.025C140.019 34.525 140.47 34.0091 140.862 33.4737C140.933 33.4027 140.995 33.323 141.05 33.2325V27.5608C141.05 27.2753 140.991 27.0785 140.876 26.9722C140.759 26.8658 140.603 26.8108 140.408 26.8108C140.157 26.8108 139.863 26.8552 139.524 26.9438C139.417 26.9615 139.309 26.9793 139.203 26.997C138.523 27.1406 137.863 27.3445 137.221 27.6122C136.579 27.8799 136.025 28.2806 135.56 28.8161C135.186 29.2806 134.903 29.6955 134.717 30.0607C134.529 30.4259 134.346 30.8763 134.169 31.4117C134.08 31.7858 134.036 32.206 134.036 32.6687C134.036 33.6137 134.187 34.4967 134.492 35.3176C134.653 35.6739 134.875 35.9239 135.161 36.0675C135.443 36.2111 135.755 36.2821 136.096 36.2821Z" fill="#E14646"/>
<path d="M148.868 39.0107C148.6 39.0107 148.385 38.8901 148.225 38.649C148.066 38.4079 147.984 38.1544 147.984 37.8866C147.984 37.6898 148.046 37.5126 148.172 37.3512C148.296 37.1899 148.502 37.1101 148.788 37.1101C149.787 37.1101 150.323 36.8069 150.393 36.2005L150.34 35.853C150.429 35.229 150.473 34.596 150.473 33.9542C150.456 33.3124 150.438 32.7592 150.42 32.2947C150.42 31.8124 150.415 31.3408 150.406 30.8763C150.397 30.4118 150.392 29.8515 150.392 29.1902C150.392 27.5484 150.392 26.4173 150.392 25.7914C150.409 25.3092 150.418 24.811 150.418 24.2933C150.454 23.5983 150.472 22.9103 150.472 22.2331C150.472 20.9849 150.445 19.7811 150.392 18.6215C150.374 18.212 150.356 17.7829 150.338 17.3379C150.338 17.0879 150.347 16.8291 150.365 16.5613C150.383 16.3291 150.392 16.1057 150.392 15.8929V15.6784H148.813C148.562 15.6784 148.38 15.5986 148.264 15.4373C148.147 15.2759 148.09 15.0898 148.09 14.8752C148.09 14.6607 148.14 14.4604 148.238 14.2724C148.335 14.0845 148.482 13.9923 148.679 13.9923C150.25 13.9923 151.893 13.9746 153.607 13.9391C153.928 13.9391 154.125 14.0597 154.196 14.3008C154.267 14.5419 154.302 14.8859 154.302 15.3309L154.249 17.0702L154.276 18.8627C154.65 18.1854 155.101 17.4443 155.628 16.6411C156.155 15.838 156.756 15.143 157.436 14.5543C158.114 13.9657 158.855 13.6714 159.659 13.6714C160.784 13.7246 161.78 14.2831 162.646 15.3433C163.511 16.4053 163.944 17.6482 163.944 19.0754C163.944 19.8608 163.818 20.703 163.57 21.6037C163.32 22.5043 162.931 23.2756 162.404 23.9174C161.877 24.5592 161.185 24.8801 160.328 24.8801C159.972 24.8801 159.613 24.8092 159.256 24.6656C158.756 24.5238 158.391 24.233 158.158 23.7968C157.926 23.3607 157.81 22.9281 157.81 22.499C157.81 22.1072 157.931 21.6959 158.172 21.2686C158.414 20.8395 158.776 20.5381 159.256 20.359C159.631 20.2881 159.89 20.0966 160.034 19.7828C160.176 19.4708 160.248 19.1357 160.248 18.7793C160.248 18.4052 160.199 17.9584 160.101 17.4425C160.003 16.9248 159.792 16.4975 159.471 16.1589L159.23 16.1057C158.98 16.1057 158.756 16.2387 158.561 16.5064C158.364 16.7741 158.187 17.0684 158.025 17.3893C157.881 17.657 157.748 17.8804 157.624 18.0577C157.463 18.4141 157.312 18.7084 157.168 18.9407C157.024 19.1729 156.873 19.4052 156.712 19.6357C156.568 19.8325 156.409 20.0736 156.229 20.359C155.997 20.7154 155.738 21.1179 155.452 21.5629C155.167 22.0097 154.81 22.5788 154.381 23.2756C154.363 23.8642 154.345 24.3819 154.327 24.8269C154.31 25.2737 154.301 25.7187 154.301 26.1638C154.301 26.8588 154.327 27.4474 154.381 27.9296L154.407 29.8285L154.381 33.3602L154.434 35.7945L154.381 36.142C154.381 36.5711 154.581 36.8565 154.984 36.9984C155.385 37.142 155.8 37.2129 156.229 37.2129C156.551 37.2129 156.778 37.3069 156.913 37.493C157.047 37.6792 157.122 37.9079 157.14 38.1756C157.033 38.5143 156.818 38.7341 156.497 38.8316C156.176 38.9292 155.837 38.9788 155.481 38.9788L154.491 38.9522L151.117 38.9256C150.331 38.9309 149.581 38.9575 148.868 39.0107Z" fill="#E14646"/>
<path d="M192.542 39.0107C192.114 39.0107 191.667 38.9575 191.204 38.8493C190.757 38.7607 190.338 38.7163 189.946 38.7163C188.697 38.2341 188.072 37.3157 188.072 35.9611C188.019 35.2484 187.992 34.5428 187.992 33.8478C187.992 33.1705 188.01 32.4932 188.046 31.8142C188.063 31.1014 188.072 30.3692 188.072 29.6192V25.7134L188.099 24.0539L188.046 22.8766C188.046 22.3589 188.028 21.8873 187.992 21.4582C187.939 20.976 187.913 20.3519 187.913 19.586L187.939 18.3555C187.904 18.1782 187.877 17.946 187.859 17.6605C187.859 17.3042 187.819 16.9478 187.739 16.5896C187.659 16.2333 187.458 15.9656 187.135 15.7865H186.974C186.617 15.7865 186.282 15.9071 185.97 16.1482C185.657 16.3893 185.375 16.6747 185.127 17.0045C184.877 17.3343 184.671 17.6339 184.511 17.9016C184.046 18.5257 183.681 19.1144 183.413 19.6675C183.269 19.9707 183.092 20.3005 182.877 20.6568C182.77 20.8891 182.671 21.1214 182.582 21.3518C182.243 22.0469 181.958 22.7614 181.725 23.4918C181.619 24.2595 181.564 24.9811 181.564 25.6584V31.4383C181.564 31.5996 181.573 31.8124 181.59 32.0801C181.626 32.4365 181.644 32.8035 181.644 33.1776C181.644 33.5162 181.617 33.8283 181.564 34.1137L181.59 37.1366L182.421 37.11C182.618 37.11 182.786 37.1455 182.93 37.2164C183.037 37.2696 183.122 37.4079 183.184 37.6313C183.246 37.8547 183.278 38.0993 183.278 38.3671C183.278 38.4929 183.269 38.6029 183.251 38.7022C183.234 38.7997 183.18 38.8671 183.09 38.9025C182.857 38.938 182.625 38.9557 182.394 38.9557L181.323 38.9291H179.314L178.109 38.9557C177.735 38.9557 177.27 38.938 176.716 38.9025C176.448 38.8848 176.18 38.8759 175.913 38.8759C175.751 38.8759 175.613 38.7695 175.497 38.555C175.38 38.3405 175.323 38.1189 175.323 37.8866C175.341 37.3689 175.538 37.11 175.913 37.11C176.216 37.1455 176.475 37.1632 176.69 37.1632C176.94 37.1632 177.146 37.1455 177.305 37.11C177.412 36.6278 177.467 36.1562 177.467 35.6917L177.44 34.8087C177.511 32.9365 177.547 31.0092 177.547 29.0288V22.2862C177.582 21.8412 177.6 21.3944 177.6 20.9476C177.6 20.2349 177.573 19.5204 177.52 18.8076C177.52 18.6835 177.511 18.5576 177.493 18.4335V18.2456C177.493 17.7811 177.341 17.2829 177.037 16.7474C176.734 16.212 176.314 15.9443 175.779 15.9443C175.529 15.9443 175.252 16.0329 174.949 16.212C174.395 16.8361 173.948 17.5329 173.609 18.2988C173.538 18.4247 173.466 18.5488 173.395 18.6729C173.056 19.3147 172.77 19.9672 172.538 20.6267C172.484 20.7703 172.431 20.9122 172.376 21.0558C171.448 22.8216 170.983 24.4102 170.983 25.818C171.037 26.7452 171.063 27.6814 171.063 28.6281C171.063 29.0395 171.037 29.4313 170.983 29.8054C170.948 30.1618 170.93 30.5199 170.93 30.8763C170.93 31.2876 170.948 31.6971 170.983 32.1067C171.019 32.4985 171.037 32.901 171.037 33.3106L171.01 37.0302C171.01 37.0834 171.037 37.1189 171.09 37.1366C171.143 37.1544 171.205 37.1632 171.278 37.1632L171.734 37.1898C171.895 37.1366 172.028 37.11 172.135 37.11C172.545 37.11 172.742 37.3157 172.724 37.7253C172.688 38.0462 172.58 38.3369 172.403 38.594C172.224 38.8529 171.956 38.9823 171.599 38.9823L171.358 38.9557L168.091 38.9823L166.35 38.9291C165.939 38.9291 165.641 38.9078 165.453 38.8617C165.265 38.8174 165.135 38.7323 165.064 38.6082C164.993 38.4841 164.92 38.3227 164.849 38.1259C164.814 37.9841 164.761 37.8228 164.688 37.6437L164.661 37.5905C164.661 37.5728 164.67 37.5497 164.688 37.5231C164.706 37.4965 164.723 37.4735 164.741 37.4558C164.759 37.438 164.771 37.4203 164.782 37.4026C164.791 37.3848 164.796 37.3671 164.796 37.3494H164.769C164.84 37.2253 164.943 37.1437 165.078 37.1083C165.211 37.0728 165.359 37.0551 165.52 37.0551H166.082C166.279 37.0551 166.453 37.0143 166.604 36.9345C166.755 36.8547 166.831 36.6632 166.831 36.3583L166.751 21.9901C166.769 21.5451 166.778 21.2136 166.778 21.0008C166.796 20.8395 166.805 20.671 166.805 20.492C166.805 20.3147 166.805 20.0647 166.805 19.742L166.672 15.6748L164.716 15.6482C164.537 15.5773 164.404 15.4425 164.315 15.2475C164.226 15.0507 164.182 14.8557 164.182 14.6589C164.182 14.4443 164.25 14.2351 164.383 14.0295C164.516 13.8238 164.636 13.721 164.745 13.721L168.707 13.6678C169.134 13.6678 169.523 13.6767 169.871 13.6944C170.219 13.7121 170.428 13.7387 170.501 13.7742C170.678 13.7742 170.795 14.0011 170.848 14.4568C170.902 14.9124 170.928 15.3982 170.928 15.9141C170.928 16.3787 170.911 16.9762 170.875 17.7066C171.267 16.9567 171.656 16.3414 172.039 15.861C172.422 15.3787 172.882 14.9372 173.418 14.5365C173.954 14.1359 174.56 13.8894 175.238 13.8008C175.648 13.604 176.122 13.5064 176.658 13.5064C177.371 13.5064 178.086 13.6501 178.799 13.9355C179.406 14.15 179.839 14.494 180.098 14.9656C180.357 15.439 180.549 15.9336 180.673 16.4514C180.726 16.6304 180.78 16.7989 180.835 16.9602V17.1481C180.835 17.3981 180.856 17.6428 180.902 17.8839C180.946 18.125 181.014 18.2456 181.103 18.2456C181.424 17.7456 181.692 17.3272 181.906 16.9886C182.139 16.6145 182.369 16.2581 182.602 15.9177C182.834 15.5791 183.138 15.1677 183.512 14.6872C184.243 14.01 185.208 13.6075 186.404 13.4834C188.189 13.4834 189.591 13.9869 190.608 14.9957C191.625 16.0028 192.134 17.5417 192.134 19.6108V22.9014C192.169 23.811 192.187 24.7932 192.187 25.8446C192.187 26.88 192.205 27.8604 192.24 28.7877C192.187 29.2522 192.16 29.7061 192.16 30.1529L192.187 31.7574V32.8815C192.187 33.5233 192.205 34.1563 192.24 34.7803C192.258 35.3158 192.267 35.7803 192.267 36.1721C192.32 36.3867 192.428 36.5728 192.588 36.7342C192.75 36.8955 192.918 37.0462 193.097 37.1898C193.312 37.3334 193.495 37.4894 193.646 37.6579C193.796 37.8281 193.873 38.0107 193.873 38.2057C193.873 38.3316 193.837 38.4734 193.766 38.6348C193.417 38.8866 193.005 39.0107 192.542 39.0107Z" fill="#E14646"/>
</g>
<defs>
<clipPath id="clip0">
<rect width="193" height="41" fill="white"/>
</clipPath>
</defs>
</svg>
