<svg width="122" height="138" viewBox="0 0 122 138" fill="none" xmlns="http://www.w3.org/2000/svg">
<path d="M10.5894 86.8791C10.0325 87.6282 9.86729 88.521 9.98225 89.4317V89.4335C9.04278 89.4012 8.0117 89.5988 7.14228 89.7335C6.89978 89.773 6.04474 90.6496 5.69805 91.0125C4.74421 92.0004 3.74546 92.0759 2.77725 91.1077C1.88987 90.2185 1.67072 89.0994 2.76108 88.2695C3.33231 87.8348 5.52201 87.7486 5.72499 87.3552C5.75373 87.3013 4.00413 85.4026 3.76701 84.993C3.00358 83.6583 3.21016 81.9752 4.79271 81.4525C5.98007 81.0591 7.12971 81.9015 7.76201 82.8248C8.28653 83.5883 8.23624 84.4685 8.37994 85.2858C8.43383 85.593 8.51287 85.8894 8.66196 86.1678H8.66376C8.88291 86.2846 9.12541 86.3726 9.36612 86.4516C9.49725 86.4947 9.62299 86.536 9.74873 86.5809C10.0272 86.6815 10.3074 86.7821 10.5894 86.8791Z" fill="#F4EBD8"/>
<path d="M12.944 75.5999C12.547 75.8155 12.1895 76.1137 11.8967 76.5017C11.8339 76.5843 11.7746 76.6687 11.7189 76.7567C11.2429 76.3041 10.122 75.3628 9.62978 74.9407C9.01903 74.4198 7.15626 74.7574 6.67485 74.7269C5.5773 74.6533 4.53544 74.1557 3.95703 73.2216C3.2888 72.1402 3.98397 70.8343 4.95218 70.2541C5.59347 69.8697 6.16829 69.9847 6.73772 70.1715C6.96585 70.2469 7.19219 70.3314 7.42391 70.4032C7.49935 69.9002 7.47421 69.3793 7.48139 68.8584C7.48678 68.5907 7.50115 68.3267 7.54247 68.0608C7.79215 66.4567 9.19867 66.0184 10.5064 66.8447C11.3363 67.3674 11.771 68.3446 11.9847 69.2554C12.1967 70.1571 10.8171 72.5911 11.2213 73.1318C11.8213 73.9383 12.3799 74.77 12.944 75.5999Z" fill="#F4EBD8"/>
<path d="M29.1702 66.5251C29.3139 66.9239 29.4576 67.3208 29.6103 67.716C29.1415 67.7322 28.6834 67.8328 28.2828 68.0268C27.8822 68.2244 27.5356 68.5172 27.2841 68.9267C26.835 68.104 26.2476 67.319 25.565 66.8035C25.4141 66.6885 22.3496 66.5843 21.4461 65.1868C20.8605 64.2797 21.2557 63.2468 22.2706 62.9414C23.3484 62.6181 24.4998 63.166 25.4734 63.5719C26.1129 63.8396 26.5242 63.0151 26.2799 62.5247C25.9153 61.7828 26.3284 61.0607 27.0703 60.7984C28.026 60.4625 28.8918 61.287 29.2205 62.0846C29.5762 62.9378 28.9061 64.5707 28.8792 64.621C28.5666 65.1976 28.9636 65.9556 29.1702 66.5251Z" fill="#F4EBD8"/>
<path d="M26.383 93.053C26.1207 93.2165 25.8584 93.3764 25.5926 93.5345C24.3909 94.2476 23.1334 94.8763 21.8401 95.3954C21.4413 95.5553 19.9522 96.5091 17.6691 95.3595C16.832 94.9392 15.95 94.6302 15.1596 94.1308C13.5304 93.1069 11.955 91.4687 11.3838 89.6023C11.0766 88.6 11.355 87.8707 11.9837 87.3318C12.3412 87.0246 12.8154 86.7767 13.3597 86.5773C15.5243 85.7798 18.8295 85.7043 20.642 85.3936C20.7318 86.2791 20.9527 87.145 21.2994 87.9299C21.9389 89.3868 22.9215 90.6262 24.1573 91.6268C24.7393 92.0974 25.5477 92.7045 26.383 93.053Z" fill="#E6692E"/>
<path d="M22.0787 79.9508C21.1105 81.1758 20.6399 82.7476 20.6075 84.3302C19.3573 84.014 17.8592 84.2349 16.6772 84.4038C16.2281 84.4703 15.7772 84.5403 15.3318 84.6301H15.33C14.5396 83.6188 13.442 82.7943 12.7792 81.6591C12.181 80.6298 11.9673 79.331 12.3301 78.2137C12.4253 78.1024 12.4828 77.9586 12.4882 77.8096C12.6247 77.5203 12.8061 77.2473 13.0361 76.9994C13.6342 76.3545 14.4174 76.1875 15.224 76.2791C15.3461 76.2917 15.4701 76.3114 15.594 76.3366C15.7718 76.3707 15.9497 76.4174 16.1257 76.4731C16.3592 76.5467 16.591 76.633 16.8137 76.7318C17.3544 76.9635 17.8538 77.2491 18.2651 77.515C19.5531 78.3431 20.6919 79.3239 22.0787 79.9508Z" fill="#E6692E"/>
<path d="M26.6983 71.0104C26.5905 71.8278 26.5599 72.6613 26.4827 73.4642C26.3659 74.7001 26.0408 76.1785 26.3677 77.4107C25.1498 77.6299 23.9751 78.1993 22.9997 79.0112C20.8333 78.1849 19.2274 76.3994 17.0736 75.539C17.0036 75.5102 16.9317 75.4833 16.8599 75.4617V75.4599C16.8958 74.8779 16.9784 74.2977 17.1688 73.6977C17.6305 72.2319 18.7208 71.0356 20.0375 70.2883C21.2554 69.6003 22.7679 69.5231 24.1116 69.7853C24.8337 69.9291 25.5001 70.2326 26.1306 70.6099C26.3552 70.7464 26.5276 70.8901 26.6983 71.0104Z" fill="#E6692E"/>
<path d="M30.2119 79.7064C32.4142 81.1848 33.2693 84.014 33.9591 86.4713C33.2226 87.3389 32.4394 88.1706 31.6221 88.9664C30.3844 90.1699 29.0425 91.2567 27.6199 92.2375C27.0882 91.8459 26.4379 91.5764 25.8954 91.2208C24.7404 90.4645 23.7758 89.4209 23.0572 88.2497C21.6058 85.8803 21.6525 82.611 23.5243 80.495C25.2811 78.5083 28.0672 78.2694 30.2119 79.7064Z" fill="#E6692E"/>
<path d="M30.8428 69.2608C31.5254 69.5428 32.1775 70.044 32.6859 70.4104C34.1768 71.4882 35.454 72.8965 36.4922 74.4036C36.9826 75.1168 37.394 75.8766 37.7712 76.6508C38.1161 77.3604 38.2796 78.2172 38.6424 78.9267C38.5131 79.2788 38.3945 79.6255 38.258 79.9075C37.7209 81.0194 37.0976 82.0864 36.4366 83.1265C36.0054 83.8019 35.5492 84.4612 35.0624 85.1007C34.2217 82.4241 33.0739 79.8824 30.6363 78.2495C29.58 77.5436 28.4034 77.2598 27.2358 77.3136C27.9077 75.794 27.8125 73.6563 27.9759 72.0846C28.0945 70.9349 28.019 69.514 29.3591 69.1081C29.6411 69.0236 29.9285 69.0183 30.2195 69.0686C30.2968 69.1512 30.4027 69.2177 30.5357 69.2536C30.6327 69.2805 30.7351 69.2787 30.8374 69.259H30.8392C30.8428 69.2608 30.8428 69.2608 30.8428 69.2608Z" fill="#E6692E"/>
<path d="M46.6985 88.4258C49.1685 91.8765 51.6366 95.329 54.1083 98.7797C53.3125 101.514 52.0066 104.073 50.2229 106.333C48.9601 107.934 47.4512 109.392 45.7213 110.474C44.8573 111.016 43.9053 111.372 42.9083 111.575C42.2634 111.708 41.6203 111.675 40.9755 111.629C45.8309 108.327 49.5798 102.439 47.7063 96.4391C46.9015 93.8668 44.9148 91.6555 42.4431 90.6011C39.7073 89.4317 36.7631 90.1394 34.2752 91.5639C31.9454 92.8968 30.0772 94.8979 28.1893 96.7678C26.8708 98.072 25.5451 99.2378 24.056 100.192C23.3878 99.6671 22.7016 99.1605 22.0334 98.6396C21.5879 98.2965 21.0166 97.7091 20.4131 97.3624C20.7652 97.2708 21.1029 97.1612 21.41 97.066C22.7824 96.6403 24.0955 96.0026 25.3601 95.3326C27.8121 94.0321 30.0683 92.3651 32.1161 90.5005C33.1489 89.561 34.1118 88.5479 35.0117 87.4809C35.3063 87.4001 35.5542 87.1647 35.5488 86.8324C36.1596 86.0708 36.738 85.284 37.2876 84.4793C38.0529 83.3584 38.7301 82.1782 39.3498 80.9729C39.5618 80.5597 39.9156 79.9885 40.1941 79.3921C40.8515 80.3405 41.5736 81.2531 42.2077 82.1441C43.6987 84.2403 45.2004 86.3313 46.6985 88.4258Z" fill="#E63C4B"/>
<path d="M49.3245 130.291C49.5436 132.051 47.5354 132.328 46.3211 131.959C45.7085 131.774 45.1786 131.415 44.6253 131.095C45.0169 129.967 45.2235 128.737 44.7169 127.963C44.6181 127.812 44.3864 127.754 44.2553 127.902C43.6697 128.559 43.5673 129.66 43.341 130.583C43.2907 130.609 43.253 130.659 43.2781 130.716C43.2835 130.729 43.2907 130.742 43.2943 130.756C43.2619 130.873 43.2278 130.988 43.1865 131.097C42.6961 132.453 41.8608 133.944 40.6573 134.783C38.8682 136.028 37.7562 133.52 36.9084 131.27L36.6695 130.625C36.4827 130.124 36.3102 129.657 36.1414 129.276C35.9761 128.893 35.8162 128.597 35.6581 128.431C35.4659 128.23 35.1588 128.347 35.0743 128.584C34.8282 129.272 34.936 130.088 35.1911 130.903C34.6504 130.986 34.1169 131.034 33.5744 131.034C33.0804 131.034 32.5793 130.995 32.0691 130.901C31.1207 130.727 30.2548 130.283 30.2333 129.195C30.2135 128.306 30.9752 127.366 31.4548 126.671C32.2577 125.504 33.2223 124.451 34.2409 123.474C34.839 122.901 35.5683 122.43 36.2563 121.932C36.5599 123.204 36.9443 124.467 37.6251 125.478C37.7993 125.739 38.1532 125.622 38.182 125.327C38.3347 123.889 37.9538 122.324 37.5443 120.838C37.4347 120.441 37.3251 120.05 37.2227 119.669C37.1653 119.454 37.1078 119.238 37.0575 119.03C37.0018 118.796 36.9425 118.563 36.8868 118.331C37.0305 118.412 37.176 118.487 37.3197 118.559C39.8148 119.802 42.7015 120.057 45.4983 120.167C45.3259 120.648 45.1894 121.124 45.0457 121.467C44.6864 122.333 44.3433 123.204 44.029 124.086C43.8206 124.672 43.6176 125.083 43.993 125.592C44.0092 125.613 44.0361 125.638 44.0667 125.633C44.8229 125.536 45.3061 124.607 45.6636 123.714C46.1522 124.636 46.7773 125.504 47.327 126.384C48.0707 127.575 49.1431 128.863 49.3245 130.291Z" fill="#FFB506"/>
<path d="M75.9789 126.673C76.9974 128.095 78.0267 130.089 75.713 130.819C74.5562 131.185 73.3329 131.11 72.1474 130.903C72.415 130.152 72.6234 129.337 72.3557 128.586C72.2713 128.347 71.9641 128.23 71.7701 128.433C71.2276 128.997 70.9582 129.815 70.7139 130.628C70.6313 130.898 70.554 131.169 70.4678 131.428C70.3942 131.654 70.3169 131.87 70.2289 132.074C69.7205 133.251 68.8457 135.327 67.2398 135.002C65.9052 134.729 65.0034 132.777 64.4879 131.685C64.3496 131.39 64.231 131.086 64.125 130.779C64.0981 130.709 64.0765 130.635 64.0514 130.565C63.9436 130.229 63.8502 129.89 63.7604 129.549C63.5951 128.918 63.6149 128.395 63.1748 127.9C63.0419 127.751 62.8101 127.81 62.7131 127.961C62.1976 128.749 62.4329 129.967 62.8209 131.059C61.1521 131.891 58.9912 133.168 58.1613 130.934C57.6673 129.608 59.2013 127.826 59.8534 126.781C60.4803 125.775 61.2096 124.774 61.7629 123.714C62.1221 124.607 62.6072 125.536 63.3598 125.633C63.3921 125.638 63.4173 125.613 63.4334 125.591C64.1125 124.677 62.9395 122.809 62.5622 121.9C62.2371 121.119 61.9138 120.339 61.5815 119.561C61.515 119.409 61.4629 119.267 61.409 119.137C63.7191 118.597 65.9734 117.831 68.1254 116.761C69.2589 116.197 70.3546 115.543 71.3893 114.801C71.3121 115.083 71.2582 115.394 71.1738 115.735C70.9007 116.833 70.6367 117.928 70.369 119.028C70.3187 119.236 70.2612 119.452 70.2037 119.667C70.1014 120.05 69.9918 120.44 69.8822 120.84C69.4762 122.326 69.0918 123.887 69.2445 125.327C69.2769 125.622 69.6289 125.739 69.8014 125.478C70.4876 124.463 70.872 123.195 71.1738 121.918C71.7629 122.338 72.3755 122.741 72.8928 123.199C74.0532 124.23 75.0771 125.415 75.9789 126.673Z" fill="#FFB506"/>
<path d="M70.2174 62.266C69.7576 62.8767 69.3085 63.491 68.7876 64.0587C67.8948 65.0305 66.8888 65.9017 65.8236 66.6795C63.713 68.2243 61.3059 69.2914 58.7767 69.929C55.7876 70.6799 52.6495 70.6494 49.5994 70.3602C47.0414 70.1177 44.4439 69.4189 41.8608 69.2069C42.9063 67.1394 44.0541 65.1329 45.378 63.2144C47.4617 60.1894 50.158 56.9165 53.4632 55.1903C57.2876 53.1892 61.4945 55.449 64.6399 57.6782C66.5961 59.0685 68.4552 60.617 70.2174 62.266Z" fill="#FFB506"/>
<path d="M45.1213 94.5457C47.1961 97.3372 47.0757 101.005 45.7357 104.081C44.3184 107.334 41.5449 109.698 38.5307 111.435C37.205 112.196 35.714 112.962 34.1566 113.545C33.695 113.72 33.2279 113.876 32.7555 114.011C31.0921 114.494 29.3856 114.717 27.7528 114.463C24.6542 113.989 22.389 111.399 21.1011 108.717C19.5904 105.568 19.6317 101.866 19.8724 98.4311C20.2873 98.8443 20.8154 99.2054 21.1639 99.5089C21.7046 99.9778 22.2363 100.463 22.7788 100.937C22.2471 101.217 21.692 101.469 21.1082 101.691C20.6358 101.871 20.6538 102.723 21.2376 102.647C22.195 102.525 23.0788 102.257 23.9051 101.885C24.3632 101.681 24.805 101.444 25.2308 101.178C29.2743 98.6844 32.1142 93.8631 36.5655 92.0327C39.7701 90.7106 43.0915 91.8153 45.1213 94.5457Z" fill="#F2E8C4"/>
<path d="M118.412 67.4251C119.781 68.7777 120.09 70.8902 119.973 72.7189C119.759 76.1498 117.561 79.9292 115.285 82.4243C113.147 84.7703 109.833 86.0816 106.813 84.6912C106.777 84.6751 106.743 84.6571 106.706 84.641C106.197 84.3949 105.775 84.0697 105.432 83.6799C104.663 82.8213 104.286 81.6645 104.196 80.4609C104.135 79.6041 104.239 78.7293 104.369 77.8832C104.396 77.7108 104.426 77.5419 104.453 77.3821C106.645 76.9492 108.707 75.6684 110.363 74.2816C112.912 72.1458 114.852 69.1316 115.614 65.8965C116.646 66.1605 117.573 66.5952 118.412 67.4251Z" fill="#F2E8C4"/>
<path d="M113.79 59.1152C114.61 61.1235 114.717 63.1803 114.306 65.1508C114.274 65.3107 114.238 65.4723 114.196 65.6304C113.433 68.6769 111.459 71.481 109.036 73.5072C107.683 74.6371 106.039 75.5299 104.304 75.8802L103.505 76.0041L103.489 76.0059C102.749 76.0795 101.998 76.049 101.254 75.8963C98.1751 75.2622 96.3573 72.5786 96.9698 69.5087C97.8087 65.2945 102.481 62.2408 103.598 58.1721C103.898 57.0872 103.943 55.9303 103.593 54.6585C103.539 54.4592 103.372 54.3675 103.201 54.3675C103.313 54.3137 103.426 54.2652 103.539 54.2185C103.855 54.0855 104.18 53.9688 104.527 53.8826C105.723 53.5826 107 53.6706 108.19 53.949C110.825 54.5669 112.79 56.6704 113.79 59.1152Z" fill="#F2E8C4"/>
<path d="M42.5003 16.8589C42.8667 19.1672 42.9835 21.5132 42.9152 23.8484C42.908 24.204 42.8937 24.5615 42.8739 24.9154C42.8577 25.2603 42.8344 25.6052 42.811 25.9519C42.6961 27.511 42.4626 29.0541 42.1644 30.5863C42.0422 31.2043 41.868 31.8222 41.6991 32.4401C36.9335 33.1335 32.2056 34.743 27.9484 36.7351C25.9113 37.6889 23.948 38.8027 22.0726 40.0493C21.3595 40.5235 20.6589 41.0139 19.9745 41.5259C19.6081 42.0253 19.2847 42.5552 18.9776 42.9881C18.4746 43.6958 18.004 44.4269 17.5639 45.176C17.122 45.9196 16.7106 46.6795 16.3208 47.4501C16.0209 47.301 15.7209 47.1735 15.4137 47.0513C15.2305 46.9759 15.0437 46.9076 14.8586 46.8376C14.661 46.7639 14.4617 46.6939 14.2659 46.6184C14.1168 46.5645 13.9713 46.5106 13.8258 46.4549C13.1683 46.2053 12.5198 45.925 11.9055 45.546C10.3194 44.5634 9.11942 43.0456 8.46916 41.3049C7.85841 39.6667 7.96798 37.8829 8.74579 36.3273C8.9811 35.8531 9.30085 35.4346 9.66191 35.0538C12.0079 35.7597 15.2107 35.6502 16.5382 33.5826C16.6478 33.4102 16.4681 33.2449 16.2993 33.2718C15.0347 33.4712 13.885 33.9508 12.5809 34.0155C12.0905 34.0406 11.5983 34.0083 11.1169 33.9275C10.4846 33.8197 9.86669 33.6311 9.28289 33.3706C9.09966 33.2898 8.92362 33.2036 8.75118 33.1084C6.18963 31.7288 5.1334 28.5781 5.66691 25.8351C6.27047 22.7419 9.14996 20.9869 11.8103 19.8049C13.3246 19.1331 14.9125 18.6085 16.4969 18.1217C17.2459 17.89 18.0004 17.687 18.7584 17.4948C20.4559 19.1492 22.5055 20.439 24.3809 21.1324C24.724 21.2581 24.9665 20.7767 24.7258 20.5414C23.4127 19.2606 21.8858 18.2655 20.4865 17.0996H20.4847C20.0302 16.7206 19.5901 16.3236 19.177 15.8961C19.0315 15.747 18.8896 15.5943 18.753 15.4381C16.8992 13.3184 15.9131 10.0922 17.1507 7.43548C18.2932 4.98352 21.2822 4.10153 23.6893 3.5321C26.8706 2.77586 30.2207 2.74353 33.3553 3.71893C36.0174 4.54882 38.3167 6.25712 39.8328 8.59232C41.4261 11.0317 42.0494 14.0261 42.5003 16.8589Z" fill="#F33A40"/>
<path d="M24.4963 68.388C22.7485 67.9569 20.9054 68.2497 19.3085 69.0365C17.5409 69.9095 15.9458 72.1351 15.5686 74.3481C15.3836 73.7302 15.1968 73.1159 15.0405 72.4997C14.6273 70.8633 14.3094 69.2053 14.101 67.5294C13.6771 64.1218 13.801 60.716 14.392 57.3371C14.9471 54.1702 15.9961 51.1003 17.4044 48.2136C18.0619 46.8664 18.8271 45.5748 19.6516 44.3228C20.0666 43.6923 20.5103 43.0798 20.9701 42.4816C21.3366 42.2247 21.7102 41.9714 22.0838 41.7199C23.9735 40.4571 25.9495 39.3327 27.9865 38.3231C30.8175 36.9184 33.7958 35.8352 36.8459 35.0143C38.3315 34.6155 39.8224 34.3263 41.3205 34.1054C41.3744 34.0964 41.4283 34.0892 41.4804 34.0802C41.9492 34.0102 42.4217 33.9473 42.8941 33.888C43.0791 33.3581 43.2156 32.7995 43.327 32.2426C43.4456 31.6642 43.5461 31.0876 43.6521 30.5379C43.9755 28.8799 44.1731 27.195 44.297 25.5082C44.3168 25.246 44.3329 24.9837 44.3455 24.7197C45.0281 24.6352 45.7179 24.567 46.4149 24.5418C48.1465 24.4843 49.8782 24.6837 51.5757 25.0107C55.0623 25.6825 58.3549 27.1285 61.3835 28.9572C67.3688 32.5713 72.4039 37.9189 76.8318 43.2666C81.4573 48.8495 85.0409 56.0617 82.6051 63.3799C81.1394 67.7791 77.9671 70.9459 74.4786 73.7895H74.4768C73.9397 74.2296 73.3919 74.6607 72.8458 75.0864H72.844C71.2848 76.3025 69.704 77.4791 68.2239 78.7006C67.8933 78.9736 68.3137 79.4515 68.6622 79.27C71.0962 77.9857 73.5032 76.4804 75.7019 74.7254H75.7037C79.6035 73.8739 83.2716 71.6609 86.1636 69.0329C88.1863 67.1917 89.988 64.9409 90.9275 62.3506C91.9801 59.4513 90.9598 56.4138 89.7976 53.7301C88.5599 50.8704 87.0007 47.9352 87.8612 44.7378C88.6713 41.7343 91.9837 41.0212 94.6189 41.8098C97.4391 42.6504 99.2156 45.5263 100.256 48.0915C100.951 49.8051 101.398 51.6033 101.853 53.3978C101.975 53.8846 102.099 54.3714 102.226 54.8546C102.368 55.3827 102.514 55.9072 102.675 56.4281C102.144 59.5537 99.8982 61.9464 97.987 64.4792C96.1026 66.9761 94.6261 70.2741 95.9248 73.3728C96.9613 75.8463 99.5408 77.1881 102.086 77.4881C102.375 77.5222 102.665 77.5366 102.954 77.5366C102.929 77.7234 102.911 77.9085 102.887 78.0881C102.742 79.1928 102.654 80.3209 102.848 81.4238C103.042 82.525 103.459 83.5004 104.1 84.3159C103.029 84.8099 101.946 85.2733 100.85 85.7134C98.0319 86.8487 95.1308 87.7756 92.1903 88.5408C89.1743 89.3258 86.0918 89.897 83.0003 90.2958C81.3585 90.5078 79.6412 90.5491 77.9473 90.6694C77.4443 90.7054 76.9414 90.7503 76.4438 90.806C75.5636 90.9065 74.6996 91.052 73.8607 91.273C73.7026 91.3161 73.7098 91.5424 73.8607 91.5873C74.8433 91.8748 75.8887 92.0077 76.954 92.0472C77.1857 92.6436 77.394 93.2507 77.5809 93.8633C78.4952 96.8416 78.7161 100.007 78.0533 103.059C76.8839 108.422 72.7003 112.606 68.0353 115.178C62.3661 118.306 55.6389 118.872 49.2872 118.819C48.6872 118.814 48.0818 118.81 47.4729 118.8C47.0543 118.792 46.634 118.784 46.2137 118.767C43.918 118.692 41.6151 118.485 39.4308 117.837C38.3225 117.506 37.2986 116.98 36.3878 116.283C36.0968 116.064 35.8184 115.823 35.5508 115.568C35.2975 115.327 35.0783 115.067 34.8825 114.792C35.2202 114.666 35.5562 114.532 35.8867 114.392C37.3076 113.784 38.6656 113.057 39.8996 112.313C41.3367 113.414 43.6539 112.98 45.2041 112.349C47.2681 111.512 49.0105 109.876 50.4907 108.254C52.5511 105.997 54.1121 103.303 55.1162 100.416C55.1324 100.368 55.1503 100.319 55.1665 100.267C55.2635 99.9851 55.3533 99.7031 55.4395 99.4193C55.5293 99.1175 55.612 98.8157 55.6892 98.5121C55.3156 97.9876 54.9384 97.4613 54.5611 96.9368C52.3553 93.8579 50.1494 90.7772 47.9417 87.6983C46.537 85.7368 45.1305 83.7734 43.7258 81.8118C42.7001 80.3766 41.6852 78.6826 40.4529 77.3085C40.4206 77.2743 40.3918 77.2402 40.3613 77.2097C39.9751 76.7858 39.5637 76.3941 39.1254 76.0546C39.1093 76.0403 39.0895 76.0277 39.0697 76.0187C38.5955 74.9751 37.9884 73.9997 37.3183 73.071C36.219 71.5441 34.8574 70.2023 33.3126 69.1227C33.7311 68.9934 34.1299 68.8209 34.4478 68.6754C35.8076 68.0503 36.9232 66.703 37.4297 65.3145C38.5829 62.1296 37.7243 58.1993 35.434 55.724C33.37 53.4948 29.8098 53.2074 27.2392 54.6426C25.1753 55.7959 23.0862 59.3022 24.3256 61.6608C23.4203 61.4147 22.4952 61.3465 21.5755 61.7093C20.4294 62.1638 19.7558 63.1553 19.7468 64.3679C19.7271 66.6689 22.964 68.6503 25.028 67.6353C25.1735 68.0072 25.3711 68.3574 25.5687 68.7077C25.1807 68.5676 24.8052 68.4634 24.4963 68.388ZM76.3827 56.7389C77.9437 53.3349 76.054 48.8154 73.7098 46.2269C71.2022 43.4588 66.9862 44.639 65.03 47.355C63.1726 49.9345 63.5121 53.5056 65.0498 56.1946C65.0408 56.1875 65.0336 56.182 65.0229 56.1749C61.7248 53.8361 57.6149 52.0757 53.6055 53.5756C50.0721 54.8959 47.3525 58.3125 45.1592 61.2315C43.3504 63.6421 41.8127 66.3133 40.7475 69.1496C40.6577 69.3885 40.5733 69.6257 40.487 69.8664C40.7744 69.9903 41.0654 70.1053 41.3618 70.2094C43.8246 71.0968 46.6089 71.4453 49.1453 71.7561C52.4774 72.162 55.8814 72.074 59.1561 71.3232C61.8146 70.716 64.3313 69.4963 66.5515 67.9335C68.2311 66.7516 70.1046 65.1582 71.3566 63.3565C71.6458 62.9416 71.9009 62.5158 72.1147 62.0829L72.0931 62.0614L71.8686 61.8494L71.1105 61.1363C70.586 60.6495 70.0525 60.1735 69.51 59.7064C72.2404 60.2435 75.0966 59.5483 76.3827 56.7389Z" fill="#F2E8C4"/>
<g opacity="0.25">
<path opacity="0.25" d="M119.044 66.2737C118.196 65.4887 116.998 64.9121 115.817 64.8726C116.162 62.6595 115.943 60.3764 114.984 58.2316C112.985 53.757 107.745 50.9853 103.152 52.7582C101.977 48.316 100.771 43.8018 96.6849 41.1756C94.6856 39.8894 91.9624 39.6757 89.7817 40.5756C87.265 41.6157 86.1747 44.1593 86.1459 46.7478C86.11 49.8698 87.8632 52.7025 88.9841 55.5102C89.7062 57.3245 90.1481 59.2501 89.7529 61.1901C89.4026 62.911 88.332 64.4612 87.2489 65.8031C84.8023 68.8352 81.7486 70.8758 78.3733 72.3488C80.4067 70.3262 82.133 68.0179 83.3509 65.3989C84.046 63.9061 84.479 62.3793 84.6891 60.8416C85.3789 55.7689 83.6293 50.6045 80.8109 46.2143C78.9158 43.2593 76.5464 40.6241 74.1681 38.0554C71.8168 35.5172 69.3414 33.0922 66.6488 30.9151C61.4359 26.6937 55.2655 23.6418 48.4791 23.3239C47.1606 23.2628 45.7523 23.2951 44.3943 23.5215C44.45 20.5719 44.1607 17.6188 43.6021 14.7231C42.9985 11.6047 41.9064 8.57256 39.8101 6.13856C37.818 3.82131 34.8469 2.43456 31.8955 1.84896C28.54 1.18074 24.9959 1.62441 21.7428 2.57825C19.0555 3.36684 16.6502 4.85239 15.5976 7.54326C14.3887 10.6347 15.5563 13.7585 17.6526 16.2823C16.9951 16.4566 16.3449 16.6488 15.6946 16.8482C13.769 17.4409 11.8613 18.1523 10.0452 19.0289C6.89806 20.554 4.47843 23.0508 4.1048 26.6273C3.76889 29.805 5.48796 32.9503 8.25787 34.4628C8.02615 34.7574 7.83035 35.0466 7.67227 35.2945C6.59808 36.9848 6.45078 39.0542 6.86752 40.9672C7.32379 43.0725 8.7303 44.9083 10.4009 46.2107C11.1032 46.7585 11.987 47.3118 12.9301 47.725C13.0522 47.7807 13.1726 47.8327 13.2965 47.8812C13.3648 47.9082 13.4295 47.9351 13.4977 47.9585C13.6989 48.0339 13.9019 48.1004 14.1031 48.1579C14.6923 48.3285 15.285 48.4255 15.8545 48.4201C14.5845 51.1416 13.6827 54.0318 13.1313 56.9831C12.4918 60.3854 12.4217 63.9169 12.8079 67.3515C12.2385 66.394 11.317 65.5551 10.338 65.2462C7.9022 64.4809 6.25319 66.5521 6.35019 68.6646C5.89752 68.6484 5.45203 68.6897 5.09277 68.7562C3.65033 69.0292 2.43064 70.5435 2.36597 71.9913C2.29951 73.5164 3.18329 74.7487 4.48921 75.4816C5.52209 76.0636 7.79083 76.4641 9.05184 75.8301C9.17758 75.9791 9.30871 76.1211 9.44344 76.263C9.9985 76.8522 10.5554 77.4683 11.1643 78.0072C10.8571 79.1191 10.9631 80.3352 11.3835 81.4328C11.8397 82.6309 12.8546 84.0159 14.0276 84.9374C13.3127 85.1386 12.6175 85.4026 11.9583 85.7475C11.8954 85.7816 11.8343 85.8158 11.7733 85.8517C11.2074 85.7098 10.6344 85.5786 10.0632 85.4583C10.0075 85.4457 9.95179 85.4331 9.89252 85.4224C10.0775 84.1721 9.36081 82.5141 8.67821 81.6896C7.60042 80.3837 6.10589 79.7604 4.43173 80.1304C2.71445 80.5095 1.87917 82.2124 2.02826 83.8362C2.10551 84.6805 2.55818 85.7457 3.23179 86.5235C2.80427 86.6546 2.39471 86.8271 2.02826 87.066C1.66182 87.3013 1.34028 87.6031 1.09418 87.9929C0.343323 89.1748 0.490621 90.4808 1.35644 91.5693C2.27615 92.7244 3.35753 93.4734 4.87362 93.1016C5.86519 92.8591 7.21062 90.682 7.27349 90.682C7.81778 90.7179 8.37104 90.7233 8.91891 90.7161C9.37338 90.7089 9.84581 90.743 10.3003 90.6838C10.5769 91.4238 11.008 92.1406 11.5254 92.7675C12.5295 93.9818 13.7133 94.9715 15.0713 95.7655C15.9084 96.2559 16.7706 96.5272 17.6508 96.7768C17.94 96.8595 18.2292 96.9403 18.522 97.0247C18.5004 97.2044 18.4807 97.3822 18.4663 97.5618C18.4394 97.8492 18.4196 98.1385 18.4052 98.4277C18.3711 99.0797 18.3585 99.7282 18.337 100.366C18.2705 102.248 18.3981 104.124 18.7376 105.974C19.2675 108.843 20.6901 111.544 22.8331 113.529C25.8635 116.339 29.7202 116.376 33.4116 115.284C33.8697 115.967 34.4625 116.585 35.1109 117.12C35.3013 117.882 35.4953 118.642 35.6875 119.403C35.754 119.665 35.8169 119.935 35.878 120.213C34.5577 120.995 33.3218 122.337 32.3859 123.319C31.2668 124.492 30.1603 125.863 29.4508 127.359C29.3088 127.654 29.1831 127.952 29.0771 128.257C27.7353 132.065 32.6266 132.631 35.5887 131.929C35.5887 131.929 35.5887 131.929 35.5905 131.929C35.9193 132.676 36.3073 133.378 36.6001 133.937C37.2755 135.229 38.5814 136.72 40.2178 136.386C41.9243 136.041 42.9518 134.516 43.7386 133.08C43.8895 132.805 44.0637 132.457 44.238 132.074C45.8187 133.567 48.5563 134.004 50.0329 132.193C51.0424 130.957 50.5143 129.279 49.8461 128.036C49.5048 127.402 49.1401 126.745 48.7539 126.089C48.012 124.817 47.1875 123.551 46.2984 122.478C46.2642 122.437 46.2283 122.405 46.1906 122.376C46.5049 121.656 46.8229 120.937 47.1301 120.215C47.2558 120.22 47.3833 120.222 47.5073 120.228C51.6586 120.361 55.8996 120.228 59.9898 119.443C60.0312 119.565 60.0904 119.698 60.1569 119.856C60.5144 120.7 60.8844 121.535 61.2509 122.374C61.2149 122.401 61.1772 122.435 61.1413 122.478C60.6527 123.068 60.2108 123.709 59.7922 124.368C59.0989 125.46 58.4702 126.61 57.8055 127.682C57.008 128.974 56.3092 130.846 57.4067 132.193C58.8869 134.009 61.646 133.565 63.2232 132.06C63.3274 132.303 63.4298 132.525 63.5196 132.719C64.2345 134.282 65.4363 136.024 67.2236 136.386C68.763 136.7 69.9432 135.408 70.6689 134.241C70.9653 133.766 71.2132 133.258 71.4377 132.737C71.5868 132.601 71.6784 132.385 71.673 132.166C71.7072 132.082 71.7431 131.999 71.7754 131.913C74.5992 132.629 79.3379 132.258 78.4577 128.636C77.9925 126.725 76.6039 125.06 75.325 123.612C74.6908 122.895 73.9903 122.238 73.261 121.616C73.173 121.541 73.0867 121.465 72.9987 121.392C72.5514 121.018 72.07 120.592 71.5527 120.251C71.6192 119.962 71.6838 119.678 71.7539 119.403C72.0287 118.309 72.3089 117.212 72.5802 116.118C72.7921 115.266 73.1083 114.638 72.6969 113.84C72.6916 113.831 72.688 113.824 72.6826 113.813C75.7489 111.284 78.1541 107.97 79.2768 104.127C80.1768 101.047 80.0169 97.7505 79.2984 94.6554C79.0918 93.7662 78.817 92.895 78.5008 92.0382C80.0385 91.9825 81.5797 91.7921 83.0078 91.6466C86.0956 91.3304 89.1476 90.7718 92.1618 90.0317C95.255 89.2737 98.2854 88.2785 101.244 87.1055C102.584 86.5756 103.906 85.9936 105.212 85.3846C105.451 85.5679 105.708 85.7331 105.981 85.884C109.424 87.7827 113.455 86.254 116.058 83.7069C119.026 80.8058 121.37 76.1049 121.393 71.9267C121.402 69.8178 120.597 67.7215 119.044 66.2737ZM11.1499 72.7763C11.1302 72.7835 11.114 72.7925 11.0942 72.8051C10.6631 73.0745 10.3631 73.5398 10.038 73.9242C9.81348 74.1918 9.5584 74.4828 9.40032 74.8062C8.64587 74.4882 7.10644 74.7559 6.67353 74.7253C5.57598 74.6517 4.53412 74.1541 3.95571 73.22C3.28748 72.1386 3.98265 70.8327 4.95086 70.2525C5.59214 69.8681 6.16696 69.9831 6.73639 70.1699C6.96453 70.2453 7.19086 70.3298 7.42259 70.4016C7.49803 69.8986 7.47288 69.3777 7.48007 68.8568C7.48546 68.5891 7.49983 68.3251 7.54114 68.0592C7.79083 66.4551 9.19734 66.0168 10.5051 66.8431C11.335 67.3658 11.7697 68.343 11.9834 69.2538C12.1648 70.0244 11.1912 71.9033 11.1499 72.7763ZM8.09082 87.2887C8.03693 88.0576 7.95429 88.8336 7.95429 89.6042C7.67227 89.6473 7.39744 89.694 7.13877 89.7335C6.89627 89.773 6.04122 90.6496 5.69453 91.0125C4.74069 92.0005 3.74194 92.0759 2.77373 91.1077C1.88636 90.2185 1.66721 89.0994 2.75757 88.2695C3.32879 87.8348 5.5185 87.7486 5.72148 87.3552C5.75022 87.3013 4.00061 85.4026 3.7635 84.993C3.00007 83.6584 3.20664 81.9752 4.78919 81.4525C5.97656 81.0591 7.12619 81.9016 7.7585 82.8249C8.28302 83.5883 8.23272 84.4685 8.37643 85.2858C8.40158 85.417 8.43032 85.5481 8.46624 85.6774C8.08363 86.1463 8.13752 86.6654 8.09082 87.2887ZM15.4162 47.0496C15.2329 46.9741 15.0461 46.9058 14.8611 46.8358C14.6635 46.7621 14.4641 46.6921 14.2683 46.6166C14.1192 46.5627 13.9737 46.5089 13.8282 46.4532C13.1708 46.2035 12.5223 45.9233 11.908 45.5442C10.4691 44.6515 9.35182 43.3168 8.67102 41.7774C10.2715 40.9116 11.714 39.8176 12.9858 38.5135C13.954 37.5237 15.2976 36.101 15.4719 34.6352C15.8958 34.3622 16.2622 34.0173 16.5443 33.579C16.6538 33.4066 16.4742 33.2413 16.3053 33.2683C15.0407 33.4676 13.8911 33.9473 12.587 34.0119C12.0966 34.0371 11.6044 34.0047 11.123 33.9239C10.4907 33.8161 9.87276 33.6275 9.28895 33.367C9.10573 33.2862 8.92969 33.2 8.75725 33.1048C6.1957 31.7252 5.13947 28.5745 5.67298 25.8315C5.858 24.8813 6.25858 24.0586 6.80286 23.3364C6.81543 23.3616 6.8316 23.3831 6.84956 23.4029C7.62377 24.3172 9.52607 23.94 10.6146 23.9184C12.1289 23.8843 13.6342 23.7244 15.1324 23.5053C16.7131 23.2736 18.2615 22.9017 19.792 22.4491C20.9937 22.0916 22.6499 21.709 23.6361 20.8216C23.8858 20.933 24.1373 21.0354 24.3852 21.1288C24.7283 21.2545 24.9708 20.7731 24.73 20.5378C23.4169 19.257 21.8901 18.2619 20.4907 17.0961H20.489C20.0345 16.717 19.5944 16.32 19.1812 15.8925C19.0357 15.7434 18.8938 15.5907 18.7573 15.4345C16.9035 13.3148 15.9173 10.0886 17.155 7.43189C18.2975 4.97993 21.2865 4.09794 23.6936 3.52851C26.8748 2.77226 30.225 2.73994 33.3595 3.71533C36.0217 4.54523 38.3209 6.25352 39.837 8.58873C41.425 11.0299 42.0501 14.0244 42.4992 16.8572C42.8656 19.1654 42.9824 21.5114 42.9141 23.8466C42.9069 24.2023 42.8925 24.5597 42.8728 24.9136C42.8566 25.2585 42.8333 25.6034 42.8099 25.9501C42.695 27.5093 42.4614 29.0523 42.1632 30.5846C42.0411 31.2025 41.8669 31.8204 41.698 32.4384C36.9324 33.1317 32.2045 34.7412 27.9472 36.7333C25.9102 37.6872 23.9469 38.8009 22.0715 40.0475C21.3584 40.5218 20.6578 41.0121 19.9734 41.5241C19.607 42.0235 19.2836 42.5534 18.9765 42.9863C18.4735 43.694 18.0029 44.4251 17.5628 45.1742C17.1209 45.9179 16.7095 46.6777 16.3197 47.4483C16.0233 47.2992 15.7215 47.1699 15.4162 47.0496ZM26.2785 62.5248C25.9138 61.7829 26.327 61.0608 27.0688 60.7985C28.0245 60.4626 28.8903 61.2871 29.219 62.0847C29.5747 62.9379 28.9047 64.5708 28.8777 64.6211C28.6712 65.0037 28.7753 65.4653 28.928 65.8982C28.8741 65.8964 28.8167 65.9 28.7574 65.9198C28.0748 66.1389 27.4119 66.4354 26.7455 66.7012C26.4563 66.8162 26.1527 66.9222 25.8869 67.0838C25.7827 66.9832 25.6731 66.8916 25.5617 66.8072C25.4108 66.6922 22.3463 66.588 21.4428 65.1905C20.8572 64.2834 21.2524 63.2505 22.2673 62.9451C23.3451 62.6218 24.4965 63.1697 25.4701 63.5756C26.1114 63.8397 26.521 63.0152 26.2785 62.5248ZM23.5265 80.4951C25.2815 78.5083 28.0694 78.2694 30.2142 79.7065C31.7015 80.7052 32.5745 82.3201 33.1979 84.023C31.9656 85.478 30.6148 86.8289 29.1885 88.0917C28.0191 89.1228 26.776 90.0622 25.4845 90.9317C24.5109 90.2095 23.69 89.2772 23.0595 88.2498C21.6063 85.8822 21.653 82.6111 23.5265 80.4951ZM17.0796 74.0266C17.1065 73.917 17.1352 73.8074 17.1694 73.696C17.631 72.2302 18.7214 71.0339 20.0381 70.2866C21.256 69.5987 22.7685 69.5214 24.1121 69.7837C24.8342 69.9274 25.5007 70.231 26.1312 70.6082C26.3575 70.7465 26.5299 70.8902 26.7006 71.0124C26.5928 71.8297 26.5623 72.6632 26.485 73.4661C26.4276 74.0733 26.3198 74.7379 26.2641 75.4043C26.1833 75.3486 26.0863 75.3145 25.9767 75.3145C24.9725 75.3091 23.9487 75.7115 23.0092 76.2917C21.3512 75.0181 19.1489 73.9116 17.0796 74.0266ZM32.8099 77.1827C31.5309 76.2899 29.352 75.4349 27.6616 75.8067C27.8736 74.5601 27.861 73.1859 27.976 72.0865C28.0945 70.9369 28.0191 69.516 29.3591 69.11C29.6412 69.0256 29.9286 69.0202 30.2196 69.0705C30.2968 69.1532 30.4028 69.2196 30.5357 69.2556C30.6327 69.2825 30.7351 69.2807 30.8375 69.261H30.8393C30.8411 69.261 30.8411 69.261 30.8411 69.261C31.5237 69.543 32.1758 70.0441 32.6841 70.4106C34.175 71.4884 35.4522 72.8967 36.4905 74.4038C36.9809 75.1169 37.3922 75.8768 37.7695 76.651C37.8252 76.7677 37.8772 76.8899 37.9257 77.0102C37.8934 77.0498 37.8647 77.0911 37.8431 77.1396C37.1084 78.2048 36.4636 79.3185 35.7899 80.416C35.057 79.1407 34.0673 78.0593 32.8099 77.1827ZM13.3881 71.1453C13.6755 72.5177 14.0689 73.8882 14.633 75.1331C14.5432 75.1349 14.4533 75.1457 14.3653 75.1582C14.3294 75.0882 14.2755 75.0253 14.2001 74.9732C13.6576 74.1882 13.0648 73.432 12.4541 72.6991C12.9768 72.3901 13.2588 71.8063 13.3881 71.1453ZM12.7792 81.6573C12.181 80.628 11.9673 79.3293 12.3301 78.212C12.4253 78.1006 12.4828 77.9569 12.4882 77.8078C12.6247 77.5186 12.8061 77.2455 13.0361 76.9977C13.6342 76.3528 14.4174 76.1857 15.224 76.2773C15.3461 76.2899 15.4701 76.3097 15.594 76.3348C15.7718 76.369 15.9497 76.4157 16.1257 76.4714C16.3592 76.545 16.591 76.6312 16.8137 76.7282C17.3544 76.9599 17.8538 77.2455 18.2651 77.5114C18.9136 77.9299 19.5279 78.3862 20.1548 78.8191C19.1866 80.0155 17.7226 82.5249 18.0999 84.2206C17.6005 84.2691 17.1173 84.3374 16.6772 84.4003C16.2281 84.4667 15.7772 84.5368 15.3317 84.6266H15.3299C14.5396 83.6171 13.4438 82.7926 12.7792 81.6573ZM17.6993 95.3703C17.6903 95.3685 17.6795 95.3631 17.6705 95.3577C16.8335 94.9374 15.9515 94.6285 15.1611 94.1291C13.5318 93.1052 11.9565 91.4669 11.3852 89.6006C11.0781 88.5982 11.3565 87.8689 11.9852 87.33C12.3427 87.0229 12.8169 86.775 13.3612 86.5756C14.8449 86.0277 16.8604 85.8211 18.5669 85.6451C18.0262 87.2187 18.3316 89.1443 18.7537 90.682C19.0717 91.8424 19.6106 92.9381 20.3075 93.9243C19.4184 94.3752 18.5364 94.8422 17.6993 95.3703ZM47.2648 126.281C47.2863 126.315 47.3079 126.351 47.3312 126.385C48.0731 127.575 49.1455 128.863 49.3251 130.291C49.5443 132.051 47.536 132.328 46.3217 131.959C45.7092 131.774 45.1793 131.415 44.626 131.095C45.0176 129.967 45.2242 128.737 44.7176 127.963C44.617 127.812 44.3871 127.754 44.256 127.902C43.6704 128.559 43.568 129.66 43.3416 130.583C43.2913 130.609 43.2536 130.659 43.2788 130.716C43.2841 130.729 43.2913 130.742 43.2949 130.756C43.2626 130.873 43.2285 130.988 43.1871 131.097C43.1458 131.209 43.1027 131.324 43.0578 131.435C42.6914 130.783 42.1938 130.183 41.813 129.545C41.1465 128.433 40.6238 127.244 40.1909 126.028C39.3951 123.788 39.3376 121.51 38.9317 119.211C41.019 119.897 43.2877 120.077 45.5008 120.165C45.3283 120.646 45.1918 121.122 45.0481 121.465C44.6889 122.331 44.3458 123.202 44.0314 124.084C43.823 124.67 43.6201 125.081 43.9955 125.59C44.0117 125.611 44.0386 125.636 44.0691 125.631C44.8254 125.534 45.3086 124.605 45.6661 123.713C46.1367 124.6 46.7313 125.437 47.2648 126.281ZM44.741 100.118C43.6883 101.122 42.553 102.035 41.3675 102.881C39.1275 104.483 36.645 105.802 34.0583 106.743C29.1274 108.539 23.796 108.104 19.9267 104.535C19.6662 102.516 19.7345 100.431 19.8764 98.4313C20.2914 98.8444 20.8195 99.2037 21.168 99.509C21.7087 99.9779 22.2404 100.463 22.7828 100.937C22.2511 101.217 21.6961 101.469 21.1123 101.692C20.6398 101.871 20.6578 102.723 21.2416 102.647C22.199 102.525 23.0828 102.257 23.9091 101.886C24.3672 101.681 24.8091 101.444 25.2348 101.178C29.2783 98.6845 32.1183 93.8632 36.5695 92.0328C39.7724 90.7143 43.0937 91.819 45.1254 94.5494C45.9696 95.6847 46.4457 96.9673 46.6289 98.2947C45.8924 98.6791 45.3068 99.5791 44.741 100.118ZM51.7753 104.081C51.2921 103.432 50.8197 102.769 50.3616 102.101C49.6718 101.086 49.0701 99.6941 48.1575 98.7761C48.0947 98.0037 47.9492 97.2223 47.7031 96.4391C46.8983 93.8668 44.9116 91.6556 42.4399 90.6011C39.7041 89.4317 36.7599 90.1395 34.272 91.5639C33.8481 91.8046 33.4422 92.0705 33.047 92.3525C32.853 92.2411 32.6428 92.1531 32.4973 92.0867C32.032 91.8801 31.4914 91.5658 30.9561 91.5083C31.3477 91.1795 31.7339 90.8436 32.1111 90.5023C33.047 89.6509 33.9254 88.742 34.7499 87.7845C34.8379 87.6839 34.9223 87.5833 35.0085 87.4827C35.3031 87.4019 35.551 87.1666 35.5456 86.8343C36.1564 86.0726 36.7348 85.2858 37.2845 84.4811C38.0497 83.3602 38.7269 82.18 39.3466 80.9747C39.5586 80.5615 39.9125 79.9903 40.1909 79.3939C40.8483 80.3424 41.5705 81.2549 42.2046 82.1459C42.8009 82.983 43.3991 83.8165 43.9937 84.6499C44.8954 85.9092 45.7972 87.1666 46.6971 88.4258C49.1671 91.8765 51.6352 95.329 54.1069 98.7797C53.5662 100.643 52.783 102.421 51.7753 104.081ZM72.8963 123.199C74.0532 124.23 75.0771 125.414 75.9806 126.671C76.9991 128.094 78.0284 130.088 75.7147 130.817C74.5579 131.183 73.3346 131.108 72.1491 130.901C72.4167 130.151 72.6251 129.335 72.3574 128.584C72.273 128.345 71.9658 128.228 71.7718 128.431C71.2294 128.995 70.9599 129.813 70.7156 130.627C70.6797 130.749 70.642 130.867 70.606 130.989C68.7307 129.401 67.1877 127.514 65.9608 125.367C65.3015 124.212 64.786 122.974 64.3585 121.717C64.01 120.695 63.8429 119.599 63.4801 118.582C65.068 118.106 66.6218 117.51 68.1271 116.761C68.984 116.335 69.8193 115.855 70.6222 115.329C70.8234 115.349 71.0282 115.365 71.2294 115.378H71.2545C71.2294 115.494 71.206 115.611 71.1737 115.735C70.9006 116.833 70.6366 117.928 70.3689 119.028C70.3186 119.236 70.2611 119.452 70.2037 119.667C70.1013 120.05 69.9917 120.44 69.8821 120.84C69.7384 121.37 69.5947 121.907 69.4815 122.448C69.2696 123.423 69.1456 124.401 69.2462 125.327C69.2786 125.622 69.6306 125.739 69.8031 125.478C70.4569 124.51 70.8396 123.308 71.1342 122.09C71.1485 122.033 71.1611 121.976 71.1755 121.918C71.233 121.959 71.2922 122.001 71.3497 122.042C71.8832 122.419 72.4293 122.786 72.8963 123.199ZM96.1693 78.3287C94.788 80.2077 93.1641 81.9106 91.4271 83.4626C89.6721 85.029 87.7303 86.2954 85.7615 87.5689C83.967 88.7258 81.921 89.5305 80.0277 90.5436C79.3343 90.585 78.6409 90.6209 77.9512 90.6694C77.4482 90.7053 76.9452 90.7502 76.4476 90.8059C75.5675 90.9065 74.7034 91.052 73.8645 91.2729C73.7065 91.316 73.7137 91.5424 73.8645 91.5873C74.8471 91.8747 75.8926 92.0076 76.9578 92.0472C77.1895 92.6435 77.3979 93.2507 77.5847 93.8632C78.499 96.8415 78.72 100.007 78.0571 103.059C77.0746 107.569 73.9598 111.244 70.2162 113.829C66.8122 113.353 63.6938 112.001 60.9096 109.933C59.4114 108.821 58.075 107.431 56.9487 105.947C56.02 104.718 55.4308 103.191 54.5075 101.966C54.7284 101.456 54.935 100.941 55.1182 100.414C55.1344 100.366 55.1524 100.317 55.1685 100.265C55.2655 99.9833 55.3554 99.7012 55.4416 99.4174C55.5314 99.1157 55.614 98.8139 55.6913 98.5103C55.3176 97.9858 54.9404 97.4594 54.5632 96.9349C52.3573 93.856 50.1514 90.7754 47.9438 87.6965C46.954 86.3151 45.9642 84.932 44.9745 83.5506C44.5595 82.9686 44.1428 82.3902 43.7278 81.81C42.7021 80.3747 41.6872 78.6808 40.455 77.3066C40.4226 77.2725 40.3939 77.2384 40.3633 77.2078C39.9771 76.7839 39.5658 76.3923 39.1275 76.0528C39.1113 76.0384 39.0916 76.0259 39.0718 76.0169C38.5976 74.9732 37.9904 73.9978 37.3204 73.0691C36.221 71.5423 34.8594 70.2004 33.3146 69.1208C33.7332 68.9915 34.1319 68.8191 34.4499 68.6736C35.8097 68.0484 36.9252 66.7012 37.4318 65.3127C38.585 62.1278 37.7264 58.1975 35.4361 55.7222C33.3721 53.4929 29.8118 53.2055 27.2413 54.6408C26.3701 55.1276 25.4953 56.0347 24.8648 57.0963C24.7193 56.8233 24.5774 56.552 24.439 56.2772C23.6325 54.6767 23.0487 52.9684 22.5978 51.2332C22.1434 49.4943 21.9296 47.7052 21.8362 45.9125C21.7679 44.5976 21.8973 43.2522 21.7751 41.9373C21.8793 41.8672 21.9799 41.7935 22.0841 41.7253C23.9738 40.4625 25.9497 39.338 27.9868 38.3284C30.8177 36.9237 33.796 35.8406 36.8462 35.0197C38.3317 34.6209 39.8227 34.3317 41.3208 34.1107C41.3747 34.1017 41.4286 34.0945 41.4806 34.0856C41.9495 34.0155 42.4219 33.9526 42.8943 33.8934C43.0794 33.3635 43.2159 32.8048 43.3273 32.2479C43.4458 31.6695 43.5464 31.0929 43.6524 30.5432C43.9757 28.8852 44.1733 27.2003 44.2973 25.5136C44.317 25.2513 44.3332 24.989 44.3458 24.725C45.0284 24.6406 45.7181 24.5723 46.4151 24.5472C48.1468 24.4897 49.8784 24.6891 51.5759 25.016C55.0626 25.6878 58.3552 27.1338 61.3838 28.9625C67.3691 32.5767 72.4042 37.9243 76.8321 43.2719C81.4576 48.8548 85.0412 56.067 82.6054 63.3852C81.1396 67.7844 77.9673 70.9513 74.4789 73.7948H74.4771C73.94 74.2349 73.3921 74.666 72.846 75.0918H72.8442C72.3646 75.4654 71.8832 75.8354 71.4054 76.2055C70.6833 76.7605 69.9666 77.312 69.2624 77.8689C68.9121 78.1455 68.5636 78.4239 68.2241 78.7059C67.8936 78.979 68.3139 79.4568 68.6624 79.2754C68.7594 79.2251 68.8546 79.173 68.9516 79.1227C71.2868 77.8725 73.5915 76.4156 75.7022 74.7307H75.704C79.6038 73.8793 83.2718 71.6662 86.1639 69.0382C88.1865 67.197 89.9882 64.9462 90.9277 62.3559C91.9803 59.4567 90.96 56.4191 89.7978 53.7354C88.5602 50.8757 87.001 47.9405 87.8614 44.7431C88.6715 41.7397 91.9839 41.0265 94.6191 41.8151C97.4393 42.6558 99.2159 45.5317 100.256 48.0968C100.951 49.8105 101.398 51.6086 101.853 53.4031C101.975 53.8899 102.099 54.3767 102.227 54.8599C102.368 55.388 102.514 55.9126 102.676 56.4335C102.144 59.5591 99.8985 61.9517 97.9872 64.4845C96.1029 66.9814 94.6263 70.2794 95.925 73.3781C96.3526 74.4002 97.0477 75.2265 97.892 75.8678C97.1663 76.5144 96.428 77.9784 96.1693 78.3287ZM103.504 76.0043L103.488 76.0061C102.747 76.0797 101.997 76.0492 101.253 75.8965C98.174 75.2624 96.3562 72.5787 96.9687 69.5088C96.9705 69.4927 96.9759 69.4765 96.9813 69.4603C99.9165 68.2209 102.3 65.9108 103.841 63.1427C104.678 61.6428 105.203 59.9309 105.404 58.228C105.575 56.7999 105.693 55.1096 105.032 53.7803C106.078 53.6133 107.165 53.7103 108.188 53.9474C110.827 54.5671 112.792 56.6706 113.791 59.1154C114.61 61.1237 114.718 63.1804 114.307 65.151C114.274 65.3109 114.238 65.4725 114.197 65.6306C113.434 68.6771 111.46 71.4812 109.036 73.5074C107.684 74.6373 106.04 75.5301 104.305 75.8804L103.504 76.0043ZM115.286 82.4243C113.148 84.7703 109.834 86.0816 106.814 84.6913C106.778 84.6751 106.744 84.6571 106.707 84.641C106.198 84.3949 105.776 84.0697 105.433 83.6799C104.991 83.186 104.684 82.5932 104.479 81.9501C107.694 80.5077 110.569 78.2533 112.837 75.5714C114.034 74.1559 115.063 72.5877 115.891 70.9315C116.407 69.9004 117.603 67.8473 117.287 66.5647C117.678 66.7928 118.056 67.0712 118.413 67.4251C119.782 68.7777 120.091 70.8902 119.974 72.7188C119.76 76.1498 117.562 79.9292 115.286 82.4243Z" fill="#8B0101"/>
<path opacity="0.25" d="M73.7096 46.227C71.202 43.4588 66.986 44.639 65.0298 47.355C63.1724 49.9345 63.5119 53.5056 65.0496 56.1947C65.0406 56.1875 65.0334 56.1821 65.0226 56.1749C61.7246 53.8361 57.6146 52.0757 53.6053 53.5757C50.0719 54.896 47.3523 58.3125 45.159 61.2315C43.3501 63.6422 41.8125 66.3133 40.7473 69.1497C40.6575 69.3886 40.573 69.6257 40.4868 69.8664C40.7742 69.9904 41.0652 70.1053 41.3616 70.2095C43.8244 71.0969 46.6086 71.4454 49.145 71.7562C52.4772 72.1621 55.8812 72.0741 59.1559 71.3232C61.8144 70.7161 64.3311 69.4964 66.5513 67.9336C68.2308 66.7516 70.1044 65.1583 71.3564 63.3566C71.6456 62.9417 71.9007 62.5159 72.1145 62.083L72.0929 62.0614L71.8684 61.8495L71.1103 61.1364C70.5858 60.6496 70.0523 60.1735 69.5098 59.7065C72.2366 60.2436 75.091 59.5484 76.3771 56.739C77.9435 53.335 76.0538 48.8172 73.7096 46.227ZM70.2176 62.2662C69.7577 62.877 69.3086 63.4913 68.7877 64.0589C67.8949 65.0307 66.889 65.902 65.8238 66.6798C63.7131 68.2246 61.3061 69.2916 58.7769 69.9293C57.4224 70.2706 56.0357 70.4466 54.64 70.5149C52.7107 68.9126 51.2557 67.2222 50.4995 64.7344C50.0737 63.3332 50.0198 61.8261 50.2174 60.3819C50.3971 59.0544 50.9575 57.8635 51.3294 56.5935C51.3312 56.5845 51.3312 56.5773 51.3347 56.5683C52.0155 56.0456 52.7233 55.5768 53.4652 55.1887C57.2895 53.1877 61.4965 55.4474 64.6418 57.6767C66.5962 59.0688 68.4554 60.6172 70.2176 62.2662Z" fill="#8B0101"/>
</g>
<path d="M43.4824 124.823C43.5112 124.824 43.5399 124.824 43.5686 124.824C43.6998 124.828 43.8596 124.747 43.9171 124.625C44.5333 123.306 45.0111 121.699 45.1602 120.249C45.2284 119.577 44.2926 119.581 44.0806 120.104C43.5525 121.399 43.2363 123.023 43.1645 124.422C43.1573 124.555 43.2453 124.711 43.3639 124.77C43.3728 124.776 43.4465 124.823 43.4824 124.823Z" fill="white"/>
<path d="M48.8601 131.3C48.7613 130.019 47.9189 128.848 47.2542 127.788C46.6578 126.836 46.1387 125.318 45.0034 124.966C44.7555 124.889 44.5687 125.094 44.5418 125.318C44.4089 126.432 45.5675 127.54 46.1549 128.431C46.8482 129.48 47.574 130.765 48.7074 131.386C48.7703 131.42 48.8655 131.379 48.8601 131.3Z" fill="white"/>
<path d="M44.9795 125.247C45.3423 126.289 46.0465 127.212 46.6536 128.124C47.1207 128.827 47.6362 130.248 48.6098 130.23C48.7715 130.226 48.8757 130.127 48.9313 129.985C49.269 129.127 48.1697 128.169 47.6991 127.514C47.0614 126.624 46.4381 125.597 45.5938 124.889C45.3369 124.674 44.8483 124.869 44.9795 125.247Z" fill="white"/>
<path d="M69.1896 125.236C69.7196 124.05 69.6585 122.601 69.716 121.325C69.786 119.748 69.8669 118.171 69.9315 116.594C69.5004 116.71 69.0693 116.827 68.6382 116.944C68.7981 117.276 68.8735 117.38 69.1771 117.569C69.2849 117.636 69.4304 117.612 69.5184 117.524C69.777 117.269 69.822 117.142 69.9082 116.777C70.1399 115.782 68.5645 115.582 68.5448 116.592C68.516 118.011 68.5017 119.43 68.4765 120.849C68.4532 122.238 68.2376 123.853 68.7352 125.175C68.7981 125.354 69.0909 125.455 69.1896 125.236Z" fill="white"/>
<path d="M69.3054 118.981C69.6538 118.69 69.794 118.228 69.9395 117.81C70.1568 117.187 70.3706 116.561 70.552 115.927C70.1442 115.816 69.7383 115.703 69.3305 115.591C69.1545 116.421 68.6731 118.647 69.8802 118.927C70.2287 119.008 70.4137 118.448 70.4568 118.212C70.5215 117.867 70.4352 117.476 70.4352 117.124C70.4352 116.721 70.4801 116.323 70.552 115.927C70.6993 115.128 69.4724 114.788 69.3305 115.591C69.2209 116.206 69.1365 116.827 69.0629 117.447C69.0018 117.954 68.894 118.48 69.1078 118.958C69.1455 119.037 69.2497 119.028 69.3054 118.981Z" fill="white"/>
<path d="M76.2728 130.625C76.9752 129.552 75.7483 127.433 75.1842 126.477C74.2986 124.975 73.0341 123.757 71.6006 122.784C70.821 122.254 70.0288 123.635 70.8695 124.034C71.2072 124.194 71.3653 124.262 71.7281 124.277C71.8359 124.28 71.9706 124.192 71.9868 124.081C72.0371 123.732 72.0209 123.571 71.9329 123.217C71.579 123.49 71.2234 123.761 70.8695 124.034C72.2329 124.932 73.3592 126.087 74.252 127.452C74.6561 128.07 74.9938 128.737 75.3225 129.396C75.5812 129.915 75.6153 130.37 76.1129 130.666C76.1704 130.702 76.2387 130.679 76.2728 130.625Z" fill="white"/>
<path d="M19.4861 103.75C20.4525 104.293 21.8159 103.942 22.8541 103.739C24.1906 103.479 25.4929 102.938 26.7162 102.354C29.3532 101.097 31.3453 99.0258 33.2512 96.872C35.2649 94.5961 37.8821 91.9376 41.2232 92.4657C44.1135 92.9237 45.0655 96.0296 46.2852 98.2175C46.6571 98.8857 47.76 98.433 47.5247 97.6947C46.7792 95.3613 45.2937 92.8717 43.1201 91.6376C40.5658 90.1862 37.46 91.2891 35.2882 92.9022C32.6728 94.8458 30.9753 97.7558 28.3706 99.7282C27.0575 100.722 25.563 101.492 24.0253 102.067C23.2889 102.344 22.5218 102.541 21.7584 102.733C21.0004 102.926 20.122 102.974 19.4825 103.445C19.3837 103.52 19.3603 103.68 19.4861 103.75Z" fill="white"/>
<path d="M34.3335 94.0661C35.5352 94.0535 36.6938 93.4428 37.9099 93.3494C39.4386 93.2308 40.9798 93.6008 42.3325 94.3014C44.7557 95.557 46.1496 98.221 46.2466 100.874C46.2808 101.801 47.7016 101.806 47.6891 100.874C47.6424 97.6408 45.8514 94.6661 43.0618 93.053C41.6211 92.2195 39.929 91.9608 38.2908 92.0632C36.9381 92.1494 34.9299 92.5752 34.2203 93.8685C34.1718 93.9547 34.2311 94.0679 34.3335 94.0661Z" fill="white"/>
<path d="M74.7821 91.8638C74.9437 93.2703 75.6066 94.587 75.788 96.0151C76.0072 97.7359 76.0179 99.4766 75.9604 101.206C75.9012 102.992 75.6982 104.77 75.3982 106.531C75.2419 107.443 75.0389 108.345 74.818 109.243C74.6438 109.96 74.4354 110.33 74.8216 110.973C74.9348 111.162 75.1665 111.214 75.3551 111.113C76.0143 110.766 76.0359 110.341 76.2155 109.629C76.4796 108.582 76.6844 107.522 76.8622 106.457C77.1783 104.569 77.34 102.658 77.3867 100.745C77.428 98.9772 77.367 97.1827 77.0472 95.4385C76.8029 94.1074 76.3808 92.4386 75.2365 91.6034C75.0623 91.474 74.7569 91.6447 74.7821 91.8638Z" fill="white"/>
<path d="M75.8034 92.507C75.9022 92.4226 75.9992 92.3364 76.098 92.2519C75.8896 92.1963 75.683 92.1424 75.4746 92.0867C75.6866 93.3351 76.2039 94.5351 76.5434 95.7547C76.9081 97.0679 77.1362 98.4133 77.2656 99.7695C77.3877 101.047 77.3446 102.324 77.3212 103.605C77.3105 104.244 77.9068 104.408 78.3685 104.205C78.6002 104.102 78.69 103.831 78.7134 103.605C78.9128 101.562 78.6882 99.4875 78.3092 97.4792C77.9446 95.5428 77.3769 93.2722 76.098 91.7238C75.8213 91.3897 75.3076 91.8172 75.5124 92.1765C75.5716 92.2825 75.6327 92.3867 75.692 92.4926C75.7153 92.534 75.7692 92.5357 75.8034 92.507Z" fill="white"/>
<path d="M76.4665 93.4733C76.3121 94.3751 76.5276 95.2823 76.6354 96.1822C76.7809 97.3875 76.8869 98.5964 76.9947 99.8072C77.1024 101.021 77.1581 102.241 77.1869 103.461C77.2084 104.415 76.9102 105.595 77.4994 106.396C77.6306 106.574 77.9216 106.676 78.0904 106.471C78.7012 105.731 78.5107 104.846 78.4964 103.917C78.4766 102.696 78.3958 101.476 78.2701 100.262C78.1533 99.1461 77.9683 98.0468 77.7473 96.9474C77.5138 95.7888 77.3162 94.4272 76.6085 93.4536C76.5725 93.4069 76.4791 93.3997 76.4665 93.4733Z" fill="white"/>
<path d="M77.2071 100.475C76.8874 101.373 76.9431 102.351 76.9449 103.296C76.9467 104.395 76.8658 105.595 77.2952 106.624C77.3724 106.809 77.6275 106.832 77.6957 106.624C78.0478 105.557 77.852 104.398 77.7891 103.296C77.7352 102.351 77.6903 101.336 77.3006 100.465C77.2808 100.418 77.2197 100.438 77.2071 100.475Z" fill="white"/>
<path d="M111.93 56.5627C112.24 58.2997 112.724 59.92 112.846 61.7001C112.973 63.5665 112.691 65.4311 112.129 67.2094C111.621 68.8153 110.805 70.2919 109.814 71.6463C108.792 73.0402 107.43 73.9438 106.208 75.1204C106.55 75.1635 106.891 75.2084 107.232 75.2515C107.173 75.1383 107.112 75.0773 106.999 75.018C105.811 74.3983 105.734 76.7407 106.999 76.1443C108.497 75.4365 109.819 73.951 110.811 72.6576C111.915 71.217 112.756 69.6452 113.369 67.9369C114.03 66.0921 114.229 64.0641 114.161 62.1151C114.092 60.1948 113.625 57.9063 112.494 56.3256C112.287 56.0382 111.869 56.2142 111.93 56.5627Z" fill="white"/>
<path d="M111.616 56.1603C111.447 57.9315 111.953 59.8104 111.903 61.6121C111.872 62.6863 111.707 63.7498 111.486 64.7988C111.321 65.582 111.152 66.7586 110.734 67.4466C109.758 69.0507 109.106 70.7051 107.903 72.1906C106.83 73.5145 105.522 74.4414 104.296 75.5821C104.138 75.7294 104.041 76.0222 104.125 76.2305C104.173 76.3491 104.208 76.4335 104.296 76.5251C104.511 76.7479 104.838 76.7676 105.104 76.6293C108.204 75.0144 110.899 71.2296 111.971 67.9675C112.62 65.9933 113.094 64.1342 113.169 62.0361C113.236 60.1787 113.144 57.6028 111.987 56.0598C111.867 55.8981 111.635 55.9538 111.616 56.1603Z" fill="white"/>
<path d="M118.863 68.3844C118.772 70.2202 118.874 71.9824 118.484 73.8003C118.102 75.5822 117.315 77.2528 116.291 78.7527C114.324 81.6358 111.141 83.4518 107.791 84.1991C106.912 84.3949 107.291 85.699 108.159 85.5338C111.827 84.8368 115.019 82.7046 117.261 79.7514C119.499 76.8019 120.983 71.8746 119.501 68.2964C119.364 67.9676 118.883 67.9964 118.863 68.3844Z" fill="white"/>
<path d="M89.3466 42.5532C90.9004 42.8029 92.3033 43.0508 93.7081 43.8071C95.2511 44.6388 96.5408 45.9662 97.527 47.3961C99.6071 50.4103 100.351 54.1934 101.096 57.7105C101.499 57.4752 101.903 57.2417 102.305 57.0064C102.021 56.6579 101.994 56.6274 101.608 56.428C101.438 56.3399 101.263 56.4208 101.199 56.595C101.044 57.01 101.048 57.0639 101.069 57.5183C101.12 58.5692 102.711 58.3626 102.492 57.3261C101.66 53.3976 100.766 49.3505 98.2887 46.0866C96.3558 43.5412 92.7219 40.9509 89.3466 41.8437C89.0161 41.9317 88.9748 42.4922 89.3466 42.5532Z" fill="white"/>
<path d="M94.0659 41.8654C94.0461 41.7971 94.0282 41.7289 94.0084 41.6624C93.8809 41.2133 93.1929 41.5295 93.439 41.9031C94.0371 42.8084 95.2658 43.2988 96.1029 43.9778C97.1268 44.8059 98.0483 45.7436 98.8369 46.7998C99.1027 46.4531 99.3686 46.1082 99.6344 45.7615C99.3309 45.7112 99.1315 45.6825 98.8261 45.6843C98.6393 45.6843 98.5028 45.8657 98.5513 46.0454C98.6303 46.3399 98.7075 46.5196 98.8351 46.7998C99.2213 47.6405 100.61 46.807 100.055 46.0867C99.2213 45.0035 98.3034 43.9814 97.2094 43.1515C96.2807 42.4456 94.9407 41.3283 93.7048 41.4343C93.7569 41.6283 93.809 41.8223 93.8629 42.0145C93.9204 41.9893 93.9779 41.9624 94.0353 41.9372C94.0623 41.9247 94.0731 41.8905 94.0659 41.8654Z" fill="white"/>
<path d="M92.727 41.2886C93.9036 42.5892 95.5778 43.4317 96.81 44.7178C98.1698 46.1369 98.7932 47.8128 99.7955 49.4403C100.176 50.0582 101.042 49.6379 100.92 48.9661C100.568 47.0387 99.0411 45.1849 97.7118 43.8161C96.5101 42.5766 94.6581 41.0426 92.8402 41.0156C92.6947 41.0156 92.6372 41.1898 92.727 41.2886Z" fill="white"/>
<path d="M28.4986 69.144C28.61 69.9272 29.6572 70.4086 30.2482 70.8362C31.3224 71.6158 32.3086 72.5175 33.2283 73.4713C35.0318 75.3359 36.415 77.5274 37.4928 79.877C37.9257 80.8218 39.44 79.7351 38.6298 79.0004C38.1843 78.5962 37.7748 78.5513 37.4928 79.1477C37.9095 79.1477 38.3262 79.1477 38.743 79.1477C37.7011 76.7873 36.2264 74.6497 34.4534 72.7798C33.5516 71.8277 32.5457 70.9745 31.4877 70.2021C30.7889 69.6919 29.5225 68.5764 28.6028 68.959C28.5202 68.9931 28.4861 69.0524 28.4986 69.144Z" fill="white"/>
<path d="M21.1822 70.125C21.6367 70.6531 22.5295 70.725 23.1564 70.9675C24.051 71.3123 24.809 71.9069 25.4467 72.6129C26.0556 73.2883 27.0688 72.2788 26.4436 71.6159C25.6802 70.804 24.8 70.2381 23.7743 69.8124C23.0432 69.5088 21.8199 69.1819 21.1822 69.807C21.0906 69.8968 21.1032 70.0334 21.1822 70.125Z" fill="white"/>
<path d="M22.5094 80.9154C23.519 80.8633 24.4926 80.6118 25.5111 80.6279C26.7811 80.6477 27.9271 81.2531 28.881 82.047C30.6378 83.5092 31.4641 85.7349 32.4053 87.7396C32.6712 87.3929 32.9388 87.0462 33.2047 86.6995C33.0879 86.642 32.9712 86.5845 32.8562 86.5289C32.7251 86.4498 32.4969 86.5163 32.4718 86.6851C32.4646 86.8648 32.4197 87.0354 32.3353 87.1935C31.8898 88.3234 34.1442 88.3287 33.7005 87.1935C32.6891 84.6104 31.4245 82.1243 29.1378 80.4591C27.3361 79.1478 23.8782 78.6789 22.3783 80.6782C22.3029 80.7752 22.3999 80.9226 22.5094 80.9154Z" fill="white"/>
<path d="M25.8776 78.9467C26.9733 79.9005 28.4211 80.3909 29.5528 81.3268C30.918 82.4549 31.879 83.9854 32.4161 85.6595C32.7628 85.3919 33.1113 85.126 33.458 84.8584C33.2011 84.6913 33.07 84.6338 32.77 84.6177C32.6766 84.6123 32.5634 84.6751 32.5221 84.7596C32.391 85.0254 32.373 85.1673 32.391 85.4709C32.4521 86.5361 34.0849 86.2469 33.7849 85.2823C33.2155 83.459 32.1772 81.8891 30.7563 80.6191C29.542 79.5323 27.6272 78.3054 25.9243 78.7653C25.8506 78.785 25.8147 78.8928 25.8776 78.9467Z" fill="white"/>
<path d="M12.5992 77.3586C13.8404 77.9514 15.2505 78.1562 16.5115 78.7561C17.8893 79.4136 18.9581 80.3962 20.0736 81.4075C20.2407 81.5602 20.5173 81.6787 20.7454 81.5853C20.952 81.5009 21.0436 81.4596 21.1586 81.2674C21.331 80.98 21.2466 80.6728 21.0508 80.4303C19.3605 78.3412 15.4553 76.0724 12.6728 76.7999C12.4303 76.8646 12.3549 77.2418 12.5992 77.3586Z" fill="white"/>
<path d="M17.3824 78.4543C17.5998 79.0237 18.2895 79.3435 18.762 79.6866C19.5092 80.2291 20.1936 80.8596 20.808 81.5493C21.1331 81.914 21.7528 81.711 21.875 81.2673C21.9935 80.8344 21.557 80.3009 21.09 80.4824C21.0415 80.4877 20.993 80.4931 20.9463 80.4985C20.8655 80.4967 20.7864 80.556 20.7685 80.635C20.7487 80.6817 20.7289 80.7284 20.7092 80.7751C21.0433 80.732 21.3774 80.6889 21.7115 80.6458C21.1223 80.0081 20.4703 79.4495 19.7464 78.9681C19.1841 78.5944 18.1854 77.9855 17.4956 78.2567C17.4183 78.2873 17.3483 78.3681 17.3824 78.4543Z" fill="white"/>
<path d="M14.8943 76.9779C15.9541 77.6677 17.1092 78.1886 18.1744 78.8748C18.9288 79.3598 19.9743 80.7358 20.9461 80.4753C21.0197 80.4556 21.088 80.3927 21.106 80.3155C21.3449 79.2736 19.8324 78.5245 19.0923 78.0647C17.8798 77.312 16.3691 76.7462 14.9302 76.845C14.8584 76.8486 14.8332 76.9384 14.8943 76.9779Z" fill="white"/>
<path d="M11.0001 89.4406C13.9927 87.6335 17.359 87.0694 20.8313 87.576C20.7253 87.1718 20.6175 86.7694 20.5115 86.3653C20.4594 86.4102 20.4056 86.4551 20.3535 86.5C20.2044 86.6275 20.1577 86.9221 20.278 87.0838C20.3175 87.1377 20.3589 87.1898 20.3984 87.2437C21.3217 88.4688 22.3653 86.3509 21.2157 86.1802C19.0026 85.8515 16.8453 85.927 14.6717 86.4676C13.1916 86.8359 11.0647 87.4898 10.648 89.1711C10.5995 89.3705 10.8169 89.5519 11.0001 89.4406Z" fill="white"/>
<path d="M39.6157 79.712C40.0181 81.5334 41.5 83.2651 42.5185 84.7955C43.6789 86.5397 44.8394 88.2858 45.9998 90.03C48.4086 93.6514 50.7959 97.3069 53.3126 100.853C53.5802 100.504 53.8497 100.154 54.1173 99.8055C53.8317 99.7157 53.7329 99.6924 53.4419 99.7301C53.2587 99.7552 53.1114 99.863 53.1078 100.064C53.1024 100.391 53.1742 100.553 53.3126 100.853C53.6916 101.679 55.0478 100.919 54.543 100.132C52.1917 96.4734 49.6912 92.8951 47.2285 89.3097C46.0411 87.5798 44.8537 85.8518 43.6664 84.1219C42.6083 82.5807 41.5306 80.5185 39.9606 79.4443C39.781 79.3204 39.5744 79.5251 39.6157 79.712Z" fill="white"/>
<path d="M39.6698 80.4105C40.1763 82.2338 41.4984 83.9241 42.5044 85.5048C43.7133 87.4071 44.9994 89.2627 46.2568 91.1327C47.4262 92.8715 48.5956 94.6086 49.7668 96.3438C50.3991 97.2779 51.0296 98.212 51.6619 99.1479C52.1362 99.8484 52.3895 100.547 53.2427 100.75C53.4151 100.791 53.6558 100.698 53.6846 100.499C53.7942 99.7478 53.5553 99.4981 53.1206 98.8533C52.49 97.9174 51.8613 96.9833 51.2308 96.0474C49.9698 94.1757 48.707 92.3075 47.4424 90.4393C46.2676 88.7041 45.091 86.9706 43.9001 85.2462C42.754 83.5864 41.5433 81.5027 39.9302 80.256C39.8153 80.168 39.6231 80.2452 39.6698 80.4105Z" fill="white"/>
<path d="M54.4784 54.894C54.8251 55.3413 55.3406 55.3287 55.8777 55.4329C56.5854 55.5712 57.2914 55.7131 57.9902 55.8856C59.5781 56.2772 61.078 56.94 62.4917 57.7555C65.2185 59.3273 67.4711 61.632 68.998 64.375C69.377 64.0822 69.756 63.7912 70.135 63.4984C69.7309 63.0385 69.3285 62.7745 68.7644 62.5553C68.5183 62.4601 68.3441 62.7313 68.3782 62.9415C68.4752 63.5092 68.6477 63.9151 68.998 64.375C69.5476 65.0971 70.7152 64.4828 70.2482 63.6439C68.5866 60.6674 66.1526 58.2406 63.1941 56.5538C61.784 55.7491 60.2445 55.1635 58.6799 54.7485C57.6578 54.4773 55.2903 53.7731 54.4802 54.6838C54.4209 54.7503 54.4263 54.8276 54.4784 54.894Z" fill="white"/>
<path d="M53.8515 55.6755C56.9807 55.2677 59.4578 56.7856 61.9134 58.528C64.3689 60.2687 66.6287 62.2787 68.7178 64.4433C69.4884 65.2408 70.532 63.7302 69.598 63.3026C69.2279 63.132 68.8794 62.9308 68.513 62.753C68.2184 62.6111 67.9615 62.8931 68.0873 63.1787C68.2238 63.4984 68.3711 63.8146 68.531 64.1235C68.9351 63.8882 69.3411 63.6529 69.7453 63.4158C67.4604 61.0536 64.9653 58.9286 62.2816 57.0317C59.8242 55.2947 56.7939 53.5936 53.6988 54.5564C53.1132 54.7378 53.1905 55.7617 53.8515 55.6755Z" fill="white"/>
<path d="M56.0629 54.8796C57.137 55.5568 58.416 55.9125 59.5782 56.4137C60.7782 56.931 61.9494 57.5112 63.0828 58.1633C65.4198 59.5087 67.509 61.226 69.3178 63.2217C69.5532 62.8176 69.7885 62.4116 70.0256 62.0074C69.6897 61.9302 69.4795 61.9284 69.1418 61.9751C68.6963 62.0361 68.6766 62.6092 68.9029 62.8804C69.0915 63.1068 69.2065 63.1894 69.4651 63.3367C70.1998 63.7516 70.8968 62.8014 70.3453 62.196C68.4466 60.1105 66.2479 58.3393 63.787 56.958C61.6278 55.7455 58.6621 54.3336 56.1221 54.6587C56.0108 54.6713 55.9551 54.8114 56.0629 54.8796Z" fill="white"/>
<path d="M17.6381 7.98511C18.9817 7.49292 20.1476 6.47621 21.4337 5.83133C22.8294 5.13077 24.43 4.84873 25.9766 4.80203C29.3554 4.70323 32.5511 6.19417 34.9653 8.48986C37.5808 10.976 39.1202 14.3458 39.8567 17.8343C40.2986 19.9252 40.3399 22.0898 40.2321 24.2166C40.1764 25.3016 40.0453 26.3829 39.8764 27.4553C39.695 28.6086 39.2765 29.8013 39.3376 30.9707C39.4022 32.2245 41.1015 32.8066 41.768 31.63C42.8637 29.6953 42.9338 26.8518 43.1044 24.6711C43.3038 22.1257 43.1278 19.5677 42.6482 17.0637C41.8632 12.9645 39.7723 9.07367 36.7455 6.20136C33.8193 3.42426 30.0039 1.93513 25.973 2.14889C24.0653 2.24948 22.2277 2.77579 20.5176 3.61287C19.0788 4.31702 17.2878 5.66966 17.004 7.3528C16.9483 7.70129 17.2339 8.13241 17.6381 7.98511Z" fill="white"/>
<path d="M40.1817 68.9341C40.0901 69.1766 40.0038 69.4191 39.9176 69.6634L39.729 70.1987L40.2499 70.4232C40.5463 70.5525 40.8553 70.6729 41.1607 70.7807C43.7132 71.7004 46.5622 72.0507 49.077 72.3578C50.4063 72.5195 51.7355 72.6021 53.0271 72.6021C55.1988 72.6021 57.3077 72.3704 59.298 71.9141C61.9117 71.316 64.4732 70.143 66.9072 68.4293C68.3963 67.3821 70.4657 65.7097 71.8614 63.7032C72.174 63.2541 72.4434 62.7996 72.6662 62.3506L72.8602 61.959L72.5512 61.65L71.5309 60.6872C71.4555 60.6172 71.38 60.5471 71.3046 60.4788C73.9254 60.4411 75.9247 59.207 76.9378 56.9904C78.5581 53.457 76.769 48.695 74.1625 45.8155C73.1081 44.6515 71.7177 44.0354 70.1441 44.0354C68.0353 44.0354 65.8348 45.1976 64.5397 46.9975C63.0577 49.0561 62.7631 51.8691 63.6595 54.5618C59.9537 52.3846 56.467 51.8547 53.3953 53.0044C49.7884 54.3516 47.0041 57.7682 44.676 60.8632C42.7324 63.4535 41.2199 66.1695 40.1817 68.9341ZM53.7456 55.7294C54.6384 55.2623 55.6138 55.0252 56.6431 55.0252C59.5154 55.0252 62.3823 56.8233 64.2882 58.1742C65.9875 59.3813 67.7066 60.7824 69.4041 62.3398C69.0574 62.7997 68.7197 63.2362 68.3425 63.6475C67.5269 64.5349 66.5605 65.3899 65.4666 66.1893C63.4924 67.6335 61.1913 68.6933 58.6298 69.3382C57.0185 69.7442 55.2689 69.94 53.2804 69.94C52.1703 69.94 50.9865 69.8789 49.659 69.7532C48.4537 69.6382 47.2053 69.4155 45.9981 69.1981C44.9545 69.0113 43.8839 68.8191 42.8115 68.6898C43.8066 66.7875 44.8144 65.1025 45.8796 63.5577C48.5722 59.6489 51.1464 57.0874 53.7456 55.7294Z" fill="#8B0101"/>
<path d="M119.456 65.8281C118.621 65.0557 117.554 64.5222 116.5 64.3372C116.739 62.1188 116.41 59.9344 115.537 57.9854C113.834 54.1719 110.029 51.6103 106.074 51.6103C105.219 51.6103 104.378 51.7325 103.57 51.975C102.422 47.6656 101.111 43.3024 97.0114 40.6672C95.763 39.8642 94.2056 39.4224 92.6266 39.4224C91.5542 39.4224 90.489 39.6271 89.5459 40.0169C87.0706 41.0408 85.5707 43.5557 85.5348 46.7441C85.506 49.2392 86.5335 51.5079 87.5287 53.7012C87.8466 54.4036 88.1484 55.0664 88.4161 55.7383C89.2388 57.8076 89.4741 59.5033 89.1525 61.0733C88.8148 62.7367 87.7011 64.2725 86.7706 65.4258C85.1989 67.3748 83.2876 69.0022 80.9721 70.3566C82.1613 68.8585 83.1403 67.2867 83.8965 65.6611C87.5933 57.7124 83.866 49.8625 81.3152 45.8927C79.3932 42.8928 77.0436 40.2828 74.606 37.6494C71.9547 34.7861 69.474 32.4311 67.0238 30.4498C61.0582 25.6195 54.825 23.0202 48.4984 22.7238C47.2338 22.6645 46.0662 22.7005 44.9992 22.8262C45.001 20.1659 44.728 17.4067 44.1891 14.6135C43.467 10.8771 42.1808 7.9779 40.2623 5.74868C38.3582 3.53203 35.4249 1.9387 32.0047 1.2597C28.9007 0.641764 25.3386 0.895045 21.5627 2.00157C18.2234 2.98056 16.0229 4.77329 15.0224 7.32944C13.9554 10.058 14.5194 13.0902 16.6049 15.9481C16.2654 16.0451 15.9044 16.1547 15.5056 16.2769C13.368 16.9361 11.4926 17.66 9.76995 18.4917C6.02465 20.306 3.85291 23.1011 3.49005 26.5751C3.15594 29.7384 4.69717 32.8999 7.36469 34.6531C7.29284 34.7591 7.22099 34.8687 7.14914 34.9801C6.08392 36.656 5.76777 38.8332 6.26355 41.1091C6.71263 43.182 8.04729 45.1687 10.0178 46.7028C10.5909 47.1483 11.516 47.786 12.6656 48.2908C12.7985 48.3518 12.9297 48.4075 13.0644 48.4596L13.1093 48.4776C13.1686 48.5009 13.2261 48.5243 13.2764 48.5422C13.4847 48.6195 13.6985 48.6895 13.9266 48.756C14.2697 48.8548 14.6074 48.9302 14.9344 48.9769C13.853 51.4594 13.0428 54.1162 12.5255 56.8843C12.0064 59.6506 11.8393 62.5517 12.0279 65.5335C11.5555 65.142 11.0364 64.8456 10.5118 64.6803C10.1095 64.5546 9.70888 64.4899 9.31908 64.4899C8.37602 64.4899 7.52816 64.8563 6.86712 65.5497C6.23841 66.2072 5.84142 67.1215 5.74981 68.0807C5.48395 68.0969 5.2199 68.1292 4.97201 68.1759C3.27449 68.4975 1.82846 70.2039 1.75122 71.9823C1.67937 73.6475 2.56675 75.1223 4.18343 76.0276C4.97919 76.4749 6.27074 76.7767 7.39703 76.7767C7.95389 76.7767 8.44967 76.7066 8.87539 76.5701C8.91491 76.6132 8.95443 76.6545 8.99395 76.6958L9.2616 76.9814C9.65319 77.4 10.0538 77.8293 10.4831 78.2317C10.2639 79.331 10.3753 80.5363 10.8082 81.6662C11.1998 82.6937 11.9525 83.8092 12.8345 84.7038C12.4285 84.8583 12.0423 85.0289 11.6776 85.2193C11.2986 85.1277 10.9124 85.0379 10.5226 84.9517C10.5011 83.6458 9.8454 82.1674 9.14125 81.3159C7.89101 79.7999 6.11087 79.1496 4.2948 79.5502C2.18413 80.0172 1.25005 82.0937 1.41891 83.9062C1.48896 84.6571 1.80511 85.5157 2.26676 86.254C2.06198 86.3492 1.87337 86.4534 1.69554 86.5684C1.23029 86.8665 0.854863 87.242 0.576434 87.6803C-0.287591 89.0383 -0.174424 90.6388 0.876418 91.9627C1.51052 92.7603 2.53621 93.8201 4.10798 93.8201C4.40078 93.8201 4.70615 93.7823 5.01332 93.7069C5.88633 93.4931 6.75036 92.4351 7.55331 91.3214C7.96466 91.3412 8.4353 91.3447 8.92389 91.3394L9.06221 91.3376C9.15202 91.3376 9.24184 91.3394 9.33345 91.3394C9.51308 91.3411 9.68373 91.3447 9.90288 91.3376C10.1903 91.9734 10.5837 92.6004 11.0543 93.1698C12.0818 94.4111 13.3284 95.4655 14.7601 96.3044C15.6672 96.8379 16.6013 97.1253 17.4815 97.3768L17.8031 97.4684C17.8228 97.4738 17.8408 97.4792 17.8605 97.4846C17.8587 97.4971 17.8587 97.5097 17.8569 97.5223C17.7887 98.2749 17.7653 99.0312 17.7438 99.7641C17.7384 99.9635 17.7312 100.163 17.7258 100.36C17.6576 102.315 17.7959 104.246 18.1372 106.1C18.7012 109.155 20.2209 111.957 22.416 113.991C25.1284 116.506 28.7803 117.192 33.1615 116.003C33.5495 116.516 34.0202 117.009 34.5662 117.476C34.6776 117.919 34.789 118.363 34.9021 118.807L35.0944 119.567C35.1249 119.691 35.1554 119.816 35.186 119.944C34.0291 120.718 32.9837 121.819 32.1268 122.719L31.9418 122.913C30.2066 124.731 29.0803 126.416 28.4983 128.067C27.9738 129.556 28.3402 130.542 28.739 131.106C29.788 132.588 32.0406 132.809 33.2891 132.809C33.9465 132.809 34.6094 132.75 35.2345 132.635C35.4464 133.08 35.6692 133.499 35.8704 133.878L36.0572 134.23C36.4039 134.893 37.6936 137.052 39.7504 137.052C39.9444 137.052 40.142 137.032 40.336 136.993C42.2706 136.601 43.4113 134.948 44.2699 133.384C44.3202 133.292 44.3813 133.175 44.4531 133.039C45.3387 133.65 46.4075 134 47.4368 134C48.6709 134 49.7594 133.499 50.5013 132.59C51.4785 131.395 51.4354 129.725 50.3792 127.761C49.4828 126.094 48.2847 123.978 46.9033 122.272L47.0003 122.051C47.1763 121.65 47.3506 121.25 47.523 120.847C48.4499 120.876 49.3535 120.892 50.2103 120.892C53.7113 120.892 56.7938 120.646 59.6104 120.141C59.896 120.815 60.1888 121.483 60.4816 122.152L60.5337 122.27C59.6338 123.393 58.8865 124.666 58.1644 125.902C57.877 126.391 57.5824 126.897 57.286 127.375C56.007 129.446 55.8813 131.298 56.9339 132.59C57.6758 133.501 58.7661 134.002 60.002 134.002C61.0349 134.002 62.1055 133.651 62.9911 133.039C63.7258 134.623 65.0281 136.572 67.101 136.993C67.2968 137.032 67.4944 137.052 67.6884 137.052C68.9656 137.052 70.1727 136.195 71.1823 134.575C71.5774 133.944 71.8882 133.262 72.1469 132.631C72.8223 132.762 73.5498 132.834 74.2468 132.834C75.4072 132.834 77.5125 132.633 78.5723 131.282C79.1543 130.54 79.3141 129.606 79.0465 128.505C78.5561 126.484 77.1622 124.787 75.779 123.222C75.127 122.484 74.3438 121.737 73.3863 120.939L73.1708 120.758C72.8834 120.515 72.569 120.249 72.2349 120.001C72.269 119.854 72.3049 119.709 72.3427 119.563L72.6606 118.302C72.8313 117.627 73.0019 116.951 73.169 116.278C73.2049 116.132 73.2444 115.996 73.2821 115.863C73.4474 115.282 73.6162 114.684 73.4133 114.005C76.5694 111.302 78.7932 107.957 79.8602 104.311C80.7099 101.401 80.7207 98.1097 79.8908 94.5296C79.7471 93.9117 79.5674 93.2812 79.3447 92.6166C80.3255 92.5537 81.2937 92.4513 82.2349 92.3507C82.517 92.3201 82.7936 92.2914 83.0684 92.2627C86.0234 91.9609 89.131 91.4112 92.3051 90.6334C95.287 89.9023 98.3694 88.909 101.466 87.6839C102.632 87.2222 103.839 86.7031 105.145 86.0977C105.316 86.2127 105.495 86.3223 105.686 86.4282C106.8 87.0426 108.016 87.3533 109.302 87.3533C111.786 87.3533 114.403 86.1875 116.482 84.1541C119.758 80.9495 121.977 76.042 122 71.9446C122.011 69.5716 121.086 67.3442 119.456 65.8281ZM72.9301 128.381C72.7881 127.986 72.4181 127.722 72.0068 127.722C71.7517 127.722 71.5128 127.824 71.3331 128.011C70.7026 128.667 70.4062 129.542 70.135 130.45L70.0542 130.716C70.0003 130.892 69.9482 131.068 69.8925 131.243C69.8171 131.474 69.747 131.668 69.6751 131.835L69.6572 131.877C69.244 132.832 68.556 134.429 67.577 134.429C67.5088 134.429 67.4369 134.422 67.3669 134.408C66.3502 134.201 65.5149 132.43 65.0658 131.48L65.0425 131.428C64.9221 131.173 64.8089 130.891 64.6994 130.565C64.685 130.529 64.6724 130.492 64.6616 130.454L64.6383 130.382C64.5485 130.1 64.4604 129.795 64.3545 129.396C64.3149 129.245 64.2862 129.101 64.2593 128.961C64.1712 128.505 64.0707 127.99 63.6306 127.496C63.4635 127.311 63.2336 127.208 62.9839 127.208C62.6731 127.208 62.3749 127.372 62.2079 127.63C61.7229 128.37 61.6816 129.396 62.0839 130.752C61.2918 131.153 60.417 131.577 59.7559 131.577C59.4074 131.577 59.0122 131.474 58.7338 130.722C58.4392 129.931 59.341 128.622 59.9373 127.754C60.0972 127.522 60.2481 127.302 60.3721 127.102C60.575 126.775 60.7906 126.448 61.0061 126.121C61.2433 125.76 61.4858 125.392 61.7175 125.017C62.0893 125.635 62.5815 126.146 63.2713 126.235L63.3701 126.242C63.591 126.242 63.7976 126.13 63.9305 125.945C64.6868 124.911 63.9431 123.375 63.3988 122.254C63.2928 122.035 63.1923 121.826 63.1258 121.667L62.9048 121.135C62.6857 120.61 62.4683 120.086 62.2456 119.561C64.4569 118.997 66.5244 118.241 68.3998 117.307C69.1039 116.957 69.7865 116.576 70.4422 116.168C70.2715 116.863 70.1027 117.558 69.932 118.255L69.7793 118.886C69.729 119.091 69.6751 119.299 69.6177 119.513C69.5458 119.782 69.4704 120.057 69.3931 120.335L69.2979 120.682C68.8758 122.223 68.4788 123.856 68.6423 125.394C68.6944 125.872 69.086 126.233 69.553 126.233C69.8584 126.233 70.135 126.082 70.3074 125.821C70.902 124.941 71.2757 123.91 71.5469 122.926C71.8846 123.166 72.2043 123.402 72.49 123.655C73.5444 124.594 74.5521 125.73 75.4844 127.028C76.5083 128.457 76.5802 129.186 76.4598 129.543C76.3592 129.843 76.0467 130.077 75.5293 130.24C74.7928 130.474 73.9791 130.529 72.9408 130.407C73.1079 129.762 73.1744 129.066 72.9301 128.381ZM5.25762 90.5903C4.87501 90.9855 4.51215 91.1867 4.17624 91.1867C3.86907 91.1867 3.54214 91.016 3.20444 90.6783C2.81104 90.2831 2.60806 89.8736 2.63142 89.5233C2.64938 89.2485 2.81644 88.9898 3.1254 88.7545C3.29246 88.6287 4.01637 88.4868 4.44928 88.4042C5.39594 88.221 6.02105 88.0988 6.25457 87.6479C6.47013 87.2528 6.37313 87.1432 5.45521 86.0905C5.08338 85.6648 4.3918 84.8708 4.28941 84.6948C3.93554 84.0769 3.84392 83.3943 4.04511 82.8698C4.19959 82.4692 4.51215 82.1872 4.97919 82.0327C5.11571 81.9878 5.25762 81.9644 5.39773 81.9644C6.15757 81.9644 6.8725 82.6147 7.25512 83.1715C7.56049 83.6152 7.62157 84.1523 7.68444 84.7217C7.70959 84.9409 7.73473 85.1654 7.77425 85.3918C7.8479 85.8139 7.95748 86.1516 8.11735 86.4552L8.29159 86.7785H8.51433C8.73169 86.8809 8.95623 86.9617 9.16819 87.0318L9.24364 87.057C9.34423 87.0911 9.44303 87.1234 9.53643 87.1558C9.58673 87.1737 9.63703 87.1917 9.68553 87.2096C9.45919 87.7072 9.34064 88.2551 9.33165 88.8371C8.68139 88.873 8.02753 88.9772 7.43655 89.0724C7.30182 89.094 7.1689 89.1155 7.03777 89.1353C6.78449 89.1748 6.4881 89.3077 5.25762 90.5903ZM7.23177 74.093C7.03776 74.1073 6.85634 74.1217 6.75215 74.1217H6.71623C5.73005 74.057 4.91273 73.6115 4.47443 72.9038C4.30378 72.6272 4.25887 72.3182 4.33971 71.9841C4.45467 71.5135 4.80854 71.0518 5.26481 70.7788C5.45881 70.6638 5.64383 70.6099 5.84861 70.6099C6.08213 70.6099 6.33361 70.6818 6.54737 70.7518C6.63539 70.7806 6.72162 70.8111 6.80963 70.8416C6.95514 70.8919 7.09884 70.9422 7.24614 70.9872L7.91975 71.1937L8.02394 70.4968C8.08861 70.0692 8.08681 69.6471 8.08681 69.2393C8.08681 69.1172 8.08681 68.995 8.08861 68.8747C8.094 68.5837 8.11016 68.3645 8.1425 68.1598C8.25387 67.443 8.63648 67.0496 9.22028 67.0496C9.52386 67.0496 9.85618 67.1592 10.1831 67.3658C10.8944 67.8131 11.234 68.7202 11.3938 69.3992C11.4567 69.6669 11.1585 70.5417 10.9807 71.0644C10.6196 72.126 10.334 72.9649 10.7328 73.4984C11.2034 74.1307 11.6561 74.7917 12.0962 75.4384C11.9309 75.5695 11.7782 75.7114 11.6363 75.8677C11.2645 75.5408 10.8172 75.16 10.4579 74.8528C10.2909 74.7109 10.1418 74.5834 10.025 74.4828C9.67475 74.1846 9.12867 74.0445 8.30596 74.0445C7.92514 74.0409 7.54073 74.0696 7.23177 74.093ZM104.207 54.6102C104.367 54.5545 104.522 54.5096 104.673 54.4718C105.653 54.2257 106.808 54.2509 108.048 54.5401C110.274 55.0628 112.21 56.8591 113.227 59.3452C113.96 61.1416 114.121 63.0528 113.708 65.0342C113.679 65.1833 113.645 65.3306 113.606 65.4832C112.92 68.2244 111.111 70.9782 108.646 73.0403C107.265 74.1954 105.727 74.9696 104.197 75.2821L103.41 75.4043C102.713 75.4707 102.027 75.4366 101.375 75.3037C98.6227 74.7361 97.0204 72.3505 97.5629 69.6291C97.9724 67.5742 99.3646 65.803 100.838 63.9294C102.203 62.1942 103.615 60.3997 104.18 58.3357C104.527 57.0855 104.534 55.8658 104.207 54.6102ZM104.971 77.9748C104.976 77.9443 104.98 77.9155 104.985 77.885C107.328 77.312 109.401 75.8785 110.755 74.745C113.277 72.6326 115.179 69.7136 116.045 66.658C116.818 66.9275 117.432 67.3083 117.987 67.858C119.37 69.2232 119.446 71.465 119.368 72.6811C119.153 76.1408 116.792 79.8717 114.838 82.0147C113.311 83.6907 111.332 84.6517 109.408 84.6517C108.598 84.6517 107.811 84.4792 107.074 84.1397L106.974 84.0912C106.552 83.8883 106.189 83.6134 105.887 83.2721C105.104 82.3973 104.867 81.2351 104.806 80.4142C104.746 79.6112 104.851 78.7652 104.971 77.9748ZM47.0201 25.1399C48.3781 25.1399 49.8295 25.2926 51.4605 25.6087C54.5771 26.2087 57.8105 27.511 61.069 29.4798C67.3723 33.2861 72.5546 39.0541 76.3646 43.6563C80.3237 48.4362 84.5217 55.7059 82.0284 63.1894C80.5788 67.5418 77.3095 70.6836 74.2611 73.184L74.0905 73.3224C73.5803 73.7409 73.0594 74.1505 72.6355 74.481L72.4684 74.6103C71.9762 74.9947 71.4822 75.3737 70.9918 75.751C69.9428 76.5575 68.856 77.3928 67.8375 78.2335C67.5268 78.4885 67.4172 78.8783 67.5501 79.2484C67.692 79.6436 68.0818 79.9202 68.4986 79.9202C68.653 79.9202 68.8057 79.8825 68.944 79.8088C71.5667 78.4257 73.9288 76.906 75.9676 75.2893C79.5908 74.4684 83.3505 72.4098 86.5695 69.4818C88.9621 67.3047 90.6183 64.9749 91.4949 62.557C92.6105 59.4854 91.6045 56.3831 90.3507 53.4875C90.225 53.1947 90.0938 52.9001 89.9627 52.6055C88.8633 50.1248 87.7263 47.5579 88.443 44.8939C89.1382 42.318 91.7913 42.1186 92.5889 42.1186C93.205 42.1186 93.8445 42.212 94.4409 42.3899C97.1138 43.1874 98.77 46.0525 99.6879 48.3177C100.347 49.9433 100.791 51.6948 101.22 53.3887L101.26 53.5414C101.341 53.8611 101.421 54.1826 101.504 54.5024L101.628 54.973C101.632 54.9856 101.633 54.9964 101.637 55.0089C101.743 55.4095 101.885 55.9287 102.05 56.464C101.596 58.8656 100.071 60.8128 98.4575 62.875C98.1359 63.2864 97.8144 63.6959 97.5018 64.1109C95.7073 66.4874 93.8804 70.0656 95.3642 73.6044C96.3845 76.042 98.8724 77.7179 102.016 78.088C102.1 78.097 102.187 78.1059 102.273 78.1131C102.14 79.1406 102.043 80.3387 102.251 81.5261C102.417 82.4656 102.731 83.3134 103.187 84.0589C102.364 84.4272 101.506 84.7918 100.626 85.1457C97.985 86.2091 95.0965 87.1522 92.041 87.9497C89.1867 88.6934 86.1204 89.279 82.9265 89.6904C81.829 89.8323 80.665 89.8969 79.5387 89.9616C78.9944 89.9921 78.4501 90.0227 77.9076 90.0622C77.349 90.1017 76.8496 90.1484 76.3808 90.2005C75.3928 90.3119 74.5198 90.47 73.7043 90.6855C73.3702 90.7789 73.1456 91.0735 73.1438 91.422C73.142 91.7723 73.3648 92.0723 73.6971 92.1693C74.5503 92.4189 75.4808 92.5716 76.5335 92.6345C76.7023 93.0908 76.8604 93.5614 77.0077 94.041C77.9238 97.0247 78.0819 100.098 77.4657 102.927C76.4634 107.521 72.9229 111.792 67.7477 114.645C62.0157 117.808 55.2885 118.212 50.0684 118.212H50.0666C49.8097 118.212 49.5529 118.21 49.2978 118.209H49.2062C48.6367 118.203 48.0637 118.2 47.4889 118.191C47.074 118.183 46.6572 118.174 46.2387 118.16C44.3651 118.099 41.9167 117.939 39.6103 117.255C38.5774 116.946 37.62 116.457 36.7595 115.798C36.5045 115.606 36.2476 115.388 35.9781 115.13C35.9512 115.105 35.9243 115.078 35.8973 115.051C35.9763 115.018 36.0554 114.984 36.1326 114.952C37.3469 114.431 38.6097 113.788 39.8869 113.033C40.5228 113.409 41.2988 113.597 42.2006 113.597C43.5532 113.597 44.8106 113.168 45.4375 112.913C47.7278 111.984 49.5834 110.156 50.945 108.665C53.0072 106.405 54.649 103.623 55.6998 100.603L55.7465 100.466C55.8435 100.186 55.9352 99.9006 56.0268 99.5934C56.1166 99.2952 56.1992 98.9916 56.2836 98.6629L56.3537 98.3899L56.1902 98.16C55.8148 97.6337 55.4376 97.1091 55.0604 96.5828L53.0611 93.7913C51.5216 91.6429 49.9822 89.4927 48.4409 87.3444L44.225 81.4578C43.9196 81.0321 43.6196 80.5884 43.3035 80.1178C42.5634 79.0238 41.8 77.8922 40.9036 76.8934L40.8785 76.8647C40.8551 76.8377 40.8318 76.8126 40.8066 76.7874C40.3971 76.3401 39.9785 75.9468 39.56 75.6162C39.1235 74.6858 38.5523 73.7337 37.8176 72.7134C36.8907 71.4254 35.7985 70.2776 34.5626 69.2896C34.6129 69.2663 34.6614 69.2447 34.7081 69.2232C36.1524 68.5585 37.4152 67.1394 38.008 65.5174C39.2205 62.1654 38.3475 57.9675 35.8865 55.3071C34.6165 53.9348 32.7268 53.148 30.7006 53.148C29.3695 53.148 28.0726 53.4785 26.9499 54.1072C24.9703 55.2119 22.9459 58.2926 23.4255 60.8685C22.689 60.7985 21.9992 60.8883 21.358 61.1398C19.9838 61.6858 19.1575 62.8876 19.1449 64.357C19.1377 65.2803 19.5563 66.2161 20.3233 66.9904C20.6053 67.2742 20.9233 67.5256 21.2646 67.7394C20.5065 67.8885 19.7574 68.1418 19.0443 68.4957C17.645 69.1872 16.3696 70.6243 15.6098 72.2535C15.2074 70.6404 14.9038 69.0274 14.7098 67.4574C14.3056 64.2097 14.4026 60.8416 14.9972 57.4465C15.5217 54.4521 16.5169 51.4361 17.9575 48.4847C18.5485 47.2704 19.2706 46.0202 20.1652 44.6622C20.537 44.0981 20.943 43.5305 21.4011 42.9305C21.7406 42.6934 22.0819 42.4617 22.4268 42.23C24.2213 41.0319 26.1846 39.902 28.2612 38.8709C30.9197 37.5506 33.8621 36.4513 37.0074 35.6034C38.369 35.237 39.8115 34.9442 41.4317 34.7052C41.4767 34.6981 41.5216 34.6909 41.5754 34.6837C42.0119 34.619 42.4682 34.5561 42.973 34.4933L43.3484 34.4466L43.4723 34.0891C43.6466 33.5915 43.7903 33.0419 43.9268 32.3646C44.0005 32.009 44.0651 31.6551 44.1298 31.3066C44.1711 31.0857 44.2106 30.8665 44.2537 30.6528C44.5555 29.1079 44.7693 27.4391 44.9076 25.553C44.9148 25.456 44.922 25.3608 44.9274 25.2638C45.4896 25.2027 45.98 25.165 46.4399 25.1488C46.6303 25.1435 46.8261 25.1399 47.0201 25.1399ZM27.8462 113.862C24.338 113.324 22.3459 109.901 21.6508 108.453C20.8298 106.743 20.4867 104.84 20.3897 102.884C20.5981 103.152 20.9268 103.296 21.3166 103.247C22.292 103.123 23.2207 102.859 24.1566 102.437C24.6272 102.227 25.0979 101.975 25.5523 101.692C27.3684 100.572 28.951 98.997 30.4814 97.4738C32.4053 95.5589 34.3938 93.5794 36.7991 92.5896C37.62 92.2519 38.4642 92.0794 39.3067 92.0794C41.3563 92.0794 43.2999 93.1105 44.6346 94.9069C46.386 97.2636 46.589 100.601 45.1806 103.836C43.9969 106.554 41.6581 108.932 38.2307 110.907C36.6679 111.805 35.2668 112.48 33.9429 112.976C33.4902 113.147 33.0358 113.297 32.5885 113.425C30.8479 113.932 29.2527 114.079 27.8462 113.862ZM23.5764 87.9318C22.1968 85.6792 22.3657 82.7206 23.9806 80.8974C24.8356 79.9292 25.9996 79.3957 27.2588 79.3957C28.1732 79.3957 29.0767 79.6777 29.8743 80.2112C31.8628 81.5459 32.6981 84.2385 33.2873 86.3223C32.6424 87.0677 31.94 87.8096 31.1999 88.5299C30.1168 89.5826 28.9114 90.5813 27.6145 91.4992C27.3918 91.3609 27.1618 91.2388 26.9391 91.1166C26.6858 90.9801 26.4469 90.8508 26.2314 90.7106C25.1913 90.0334 24.2734 89.0724 23.5764 87.9318ZM37.7098 79.6418C37.2392 80.6172 36.6535 81.6501 35.9225 82.7997C35.7087 83.1356 35.4877 83.4661 35.2632 83.7895C34.4674 81.5746 33.2729 79.2843 30.9736 77.7449C30.1096 77.1665 29.1198 76.8198 28.0834 76.7264C28.3654 75.6863 28.43 74.5223 28.4875 73.4678C28.5127 72.9972 28.5378 72.5517 28.5791 72.1494C28.5953 72.0003 28.6079 71.8458 28.6186 71.6895C28.7139 70.4914 28.836 69.904 29.533 69.692C29.6677 69.6525 29.806 69.6381 29.9641 69.6507C30.0862 69.7369 30.2246 69.8016 30.3736 69.8429C30.4922 69.8752 30.6179 69.8896 30.7455 69.8824C31.2449 70.1141 31.7478 70.4806 32.1574 70.7806L32.328 70.9045C33.6663 71.8709 34.8986 73.1661 35.9889 74.7504C36.3985 75.345 36.7919 76.0348 37.2212 76.9186C37.3703 77.224 37.4834 77.5706 37.6056 77.9389C37.717 78.2766 37.8319 78.6251 37.981 78.9592C37.8912 79.2125 37.8014 79.4514 37.7098 79.6418ZM21.825 64.0534C21.9166 63.8055 22.1358 63.6169 22.4429 63.5253C22.6046 63.4768 22.7735 63.4534 22.9603 63.4534C23.6231 63.4534 24.3668 63.7678 25.0206 64.0444L25.2344 64.1342C25.7966 64.3695 26.4038 64.1648 26.7289 63.6402C26.9912 63.2181 27.0271 62.6738 26.8205 62.2571C26.7379 62.09 26.7271 61.9301 26.7846 61.7846C26.8583 61.605 27.0343 61.4541 27.266 61.3715C27.3469 61.3427 27.4259 61.3284 27.5067 61.3284C27.9863 61.3284 28.4552 61.8367 28.6528 62.3163C28.8486 62.787 28.5073 63.9366 28.3276 64.3516C27.9468 65.0827 28.263 65.8856 28.4947 66.473C28.5306 66.5628 28.5648 66.649 28.5935 66.7299C28.651 66.8915 28.7103 67.0532 28.7695 67.2149C28.5019 67.2778 28.2486 67.3658 28.0097 67.4807C27.7744 67.5975 27.5588 67.7376 27.3666 67.9011C26.9984 67.3532 26.517 66.764 25.926 66.3203C25.7697 66.2018 25.626 66.1802 25.2039 66.1191C24.4674 66.0114 22.513 65.7275 21.9507 64.8581C21.7801 64.5869 21.7334 64.3013 21.825 64.0534ZM17.7492 73.8792C18.139 72.6451 19.082 71.5278 20.3377 70.8165C20.9915 70.4482 21.8088 70.2525 22.7016 70.2525C23.1255 70.2525 23.5602 70.2956 23.9931 70.38C24.5698 70.495 25.1661 70.7393 25.8128 71.1255C25.899 71.1776 25.9781 71.2332 26.0535 71.2889C26.0104 71.6877 25.9817 72.0865 25.9529 72.4745C25.9296 72.7871 25.9062 73.0978 25.8775 73.4068C25.8523 73.6762 25.8164 73.9565 25.7805 74.2439C25.6727 75.0989 25.5523 76.0473 25.6637 76.9455C24.6829 77.2078 23.7435 77.673 22.901 78.3125C21.9992 77.9191 21.1891 77.3533 20.3359 76.7569C19.4521 76.1408 18.5395 75.5031 17.5049 75.0576C17.5534 74.6283 17.6324 74.2457 17.7492 73.8792ZM25.6422 95.8715C27.9935 94.623 30.309 92.9686 32.522 90.9532C33.4974 90.0676 34.4531 89.0742 35.3692 88C35.7734 87.824 36.0554 87.4809 36.1344 87.0731C36.6931 86.369 37.2481 85.6127 37.7888 84.8223C38.5073 83.7697 39.1953 82.6021 39.8905 81.2495C39.966 81.1004 40.063 80.9315 40.1653 80.7465C40.2013 80.6836 40.2372 80.6172 40.2749 80.5507C40.4653 80.8094 40.6557 81.0663 40.8443 81.3177C41.1497 81.7255 41.4371 82.1099 41.712 82.4979C42.7269 83.9206 43.7454 85.3433 44.7621 86.7642L49.8295 93.8452C51.033 95.5284 52.2366 97.2115 53.4419 98.8929C52.6533 101.476 51.4102 103.851 49.7469 105.958C48.4212 107.637 46.959 108.985 45.3998 109.96C44.6579 110.427 43.8029 110.765 42.858 110.966C47.0147 107.472 50.0558 101.923 48.2883 96.2595C47.4242 93.4967 45.3297 91.1723 42.6856 90.0424C41.6976 89.6203 40.636 89.4047 39.533 89.4047C37.7619 89.4047 35.8398 89.9688 33.977 91.0358C31.8556 92.2501 30.1186 93.9853 28.439 95.6649C28.2145 95.8894 27.9899 96.114 27.7654 96.3349C26.393 97.6911 25.2434 98.6647 24.0884 99.4443C23.8369 99.2503 23.5836 99.0581 23.3303 98.8659C23.0213 98.6324 22.7142 98.3971 22.407 98.16C22.2741 98.0576 22.1178 97.9211 21.9525 97.7774C21.8861 97.7199 21.8178 97.6606 21.7496 97.5995C23.1794 97.1361 24.5159 96.4678 25.6422 95.8715ZM18.615 86.2522C19.1485 86.1965 19.664 86.1444 20.1239 86.0833C20.2478 86.8162 20.4562 87.5168 20.7436 88.1725C21.4083 89.6867 22.4286 91.007 23.774 92.0956C24.1333 92.3884 24.6111 92.7584 25.1464 93.089C23.9842 93.7698 22.795 94.3554 21.613 94.8278C21.5645 94.8476 21.5017 94.8763 21.4262 94.9122C21.1137 95.0595 20.5909 95.3074 19.8383 95.3074C19.2311 95.3074 18.5934 95.1404 17.9414 94.8134C17.6234 94.6536 17.3001 94.5098 16.9893 94.3715C16.454 94.1326 15.9493 93.9081 15.4822 93.6135C13.7488 92.5249 12.4339 90.9585 11.9633 89.4227C11.7495 88.7239 11.877 88.221 12.3782 87.7898C12.6602 87.5473 13.0608 87.3318 13.5692 87.145C14.9775 86.6294 16.9103 86.43 18.615 86.2522ZM21.6975 100.786C21.4316 100.907 21.1622 101.018 20.8945 101.118C20.67 101.205 20.485 101.363 20.3592 101.562C20.3592 100.933 20.379 100.301 20.4095 99.6724C20.5406 99.7748 20.6628 99.8718 20.7688 99.9635C21.0562 100.213 21.3418 100.468 21.6292 100.723C21.6508 100.745 21.6741 100.766 21.6975 100.786ZM14.8553 46.1855C14.7314 46.1406 14.6074 46.0957 14.4727 46.0436C14.329 45.9915 14.1871 45.9394 14.0434 45.8855C13.4919 45.6753 12.8434 45.4077 12.2255 45.0268C10.7849 44.1341 9.6532 42.7365 9.03886 41.0911C8.48919 39.6163 8.579 38.0194 9.29034 36.5967C9.43404 36.3075 9.62266 36.0237 9.86336 35.7381C10.6627 35.9429 11.4998 36.0507 12.3081 36.0507C14.4799 36.0507 16.163 35.289 17.054 33.9059C17.2139 33.6544 17.2246 33.3508 17.0845 33.0939C16.9175 32.7922 16.551 32.6125 16.2079 32.6682C15.6672 32.7544 15.1499 32.8856 14.6523 33.0149C13.941 33.1981 13.2674 33.3706 12.5542 33.4065C12.1141 33.428 11.6669 33.4011 11.2214 33.3275C10.6466 33.2305 10.0789 33.058 9.53104 32.8137C9.36578 32.7401 9.20232 32.661 9.04245 32.573C6.62641 31.2725 5.81807 28.2565 6.26715 25.9518C6.84556 22.9897 9.84899 21.3425 12.0585 20.3599C13.6069 19.6737 15.2613 19.1366 16.6768 18.7019C17.257 18.524 17.8695 18.3516 18.5827 18.1666C20.2371 19.715 22.2561 20.994 24.171 21.7017C24.2752 21.7413 24.3847 21.7592 24.4925 21.7592C24.868 21.7592 25.2057 21.5239 25.3548 21.1574C25.5056 20.7874 25.4248 20.3743 25.15 20.1048C24.3003 19.2767 23.3644 18.5636 22.4591 17.8738C21.9328 17.4732 21.3885 17.0583 20.8766 16.6325L20.767 16.5427C20.3269 16.1691 19.9479 15.8188 19.6119 15.4703C19.4808 15.3374 19.3461 15.1919 19.2132 15.0392C17.6127 13.207 16.5241 10.2251 17.7043 7.6941C18.6797 5.5996 21.2268 4.74096 23.8333 4.12483C27.0774 3.35421 30.3216 3.41169 33.1777 4.30086C35.7195 5.09303 37.9038 6.73486 39.3265 8.92457C40.8336 11.2436 41.4533 14.1554 41.8988 16.9559C42.2401 19.1025 42.3784 21.4161 42.3065 23.8376C42.2994 24.1663 42.2868 24.5094 42.2652 24.8884C42.2491 25.2297 42.2275 25.571 42.2024 25.9105C42.1 27.3116 41.8916 28.8026 41.5647 30.4731C41.4713 30.9438 41.3473 31.4126 41.2144 31.9012C36.8745 32.5766 32.3244 34.0173 27.6882 36.1872C25.6637 37.1339 23.659 38.2655 21.7334 39.5463C20.9969 40.0367 20.282 40.5396 19.6084 41.0408L19.5365 41.0947L19.4826 41.1684C19.2617 41.4684 19.0623 41.7701 18.8683 42.0629C18.7335 42.2659 18.6042 42.4617 18.4803 42.6377C17.9863 43.3311 17.5013 44.0838 17.0396 44.8688C16.7019 45.4364 16.3732 46.0256 16.0445 46.6579C15.9187 46.604 15.7858 46.5483 15.6439 46.4926C15.5038 46.4352 15.3619 46.3813 15.22 46.3274L14.8553 46.1855ZM12.8794 78.4903C12.9818 78.3359 13.0518 78.1616 13.0806 77.9802C13.1865 77.7754 13.3213 77.585 13.4811 77.4126C13.8242 77.0425 14.2625 76.8629 14.8248 76.8629C14.9308 76.8629 15.0421 76.8701 15.1643 76.8826C15.2631 76.8934 15.3655 76.9096 15.4786 76.9329C15.5577 76.9491 15.6403 76.9671 15.7247 76.9886L15.7319 77.012L15.7355 76.9922C15.8038 77.0102 15.8738 77.0299 15.9457 77.0533C16.1487 77.1162 16.3606 77.1952 16.5762 77.2904C17.0145 77.4772 17.4725 77.7251 17.9378 78.0251C18.3455 78.2874 18.7479 78.5748 19.1395 78.8514C19.788 79.3113 20.4526 79.7819 21.1783 80.1789C20.5604 81.1686 20.1688 82.3506 20.0431 83.6116C19.7646 83.5793 19.47 83.5631 19.1521 83.5631C18.2773 83.5631 17.4151 83.6853 16.6534 83.793L16.5905 83.802C16.2816 83.8469 15.9313 83.9008 15.572 83.9655C15.299 83.6458 15.0062 83.3458 14.7206 83.053C14.1781 82.4961 13.6662 81.9698 13.3051 81.3537C12.786 80.4609 12.6279 79.3741 12.8794 78.4903ZM30.8425 129.182C30.8299 128.607 31.3437 127.884 31.755 127.302C31.8251 127.203 31.8933 127.108 31.9562 127.014C32.6442 126.014 33.5298 124.997 34.6632 123.91C35.0261 123.562 35.4446 123.253 35.8901 122.936C36.1632 123.914 36.535 124.938 37.1242 125.814C37.3002 126.076 37.5769 126.227 37.8804 126.227C38.3511 126.227 38.7427 125.864 38.7894 125.388C38.9546 123.838 38.5558 122.209 38.1337 120.673L38.0583 120.402C37.9738 120.1 37.8912 119.802 37.814 119.507C37.8086 119.484 37.8014 119.462 37.796 119.439C40.027 120.368 42.4538 120.623 44.6687 120.736C44.6058 120.923 44.5465 121.093 44.4891 121.232C44.0885 122.196 43.7526 123.064 43.4616 123.88L43.4113 124.021C43.2155 124.557 42.973 125.223 43.5191 125.963C43.6556 126.139 43.855 126.24 44.0651 126.24L44.1496 126.235C44.8519 126.145 45.3495 125.629 45.7213 125.008C45.901 125.295 46.086 125.577 46.2674 125.854C46.4542 126.138 46.6392 126.421 46.8171 126.705C46.977 126.962 47.153 127.222 47.3308 127.488C47.9541 128.419 48.6008 129.382 48.723 130.362C48.7625 130.675 48.7068 130.912 48.5523 131.086C48.3278 131.34 47.8679 131.491 47.3183 131.491C47.0362 131.491 46.7452 131.449 46.4973 131.374C46.1075 131.257 45.7393 131.045 45.3531 130.815C45.7537 129.439 45.7123 128.369 45.2256 127.625C45.0549 127.366 44.7567 127.205 44.4495 127.205C44.1981 127.205 43.9681 127.309 43.8029 127.494C43.2352 128.13 43.0484 129.035 42.8832 129.834C42.8526 129.983 42.8221 130.131 42.7898 130.274C42.691 130.413 42.646 130.582 42.664 130.749C42.6478 130.799 42.6335 130.844 42.6173 130.887C42.294 131.78 41.5647 133.409 40.3126 134.282C40.1007 134.429 39.9067 134.505 39.7378 134.505C38.7786 134.505 37.8679 132.087 37.4799 131.058L37.2032 130.312C37.029 129.843 36.8637 129.401 36.7003 129.033C36.4847 128.537 36.2997 128.221 36.0985 128.011C35.9189 127.822 35.68 127.718 35.4249 127.718C35.0135 127.718 34.6435 127.984 34.5016 128.378C34.2968 128.952 34.2716 129.613 34.4279 130.384C33.6106 130.461 32.8795 130.431 32.1789 130.301C30.8604 130.061 30.8479 129.446 30.8425 129.182Z" fill="#8B0101"/>
</svg>
